<?xml version="1.0" standalone="no"?>
<!DOCTYPE svg PUBLIC "-//W3C//DTD SVG 1.1//EN" "http://www.w3.org/Graphics/SVG/1.1/DTD/svg11.dtd" >
<svg xmlns="http://www.w3.org/2000/svg" xmlns:xlink="http://www.w3.org/1999/xlink" version="1.1">
<metadata>
Created by FontForge 20161003 at Thu Oct  4 07:33:16 2018
 By www-data
1997 Fred Smeijers, published by Fontshop International for the FontFont library.
</metadata>
<defs>
<font id="QuadraatSans-Regular" horiz-adv-x="500" >
  <font-face 
    font-family="QuadraatSans-Regular"
    font-weight="400"
    font-stretch="normal"
    units-per-em="1000"
    panose-1="2 0 5 6 5 0 0 2 0 4"
    ascent="800"
    descent="-200"
    x-height="455"
    cap-height="642"
    bbox="-164 -303 1144 895"
    underline-thickness="20"
    underline-position="-176"
    unicode-range="U+0020-FB02"
  />
<missing-glyph horiz-adv-x="280" 
 />
    <glyph glyph-name=".notdef" horiz-adv-x="280" 
 />
    <glyph glyph-name=".null" horiz-adv-x="0" 
 />
    <glyph glyph-name="nonmarkingreturn" horiz-adv-x="207" 
 />
    <glyph glyph-name="space" unicode=" " horiz-adv-x="207" 
 />
    <glyph glyph-name="hungarumlaut" unicode="&#x2dd;" horiz-adv-x="450" 
d="M447 664l-50 72l-180 -147l34 -48zM237 664l-50 72l-180 -147l34 -48z" />
    <glyph glyph-name="ogonek" unicode="&#x2db;" horiz-adv-x="450" 
d="M340 -206l-20 29q-13 -6 -31.5 -14.5t-41.5 -8.5q-33 0 -51.5 19.5t-18.5 39.5q0 17 11 36.5t26 37.5l75 87h-60l-61 -62q-32 -32 -48 -55.5t-16 -50.5q0 -55 31.5 -79t93.5 -24q29 0 58.5 12.5t52.5 32.5z" />
    <glyph glyph-name="caron" unicode="&#x2c7;" horiz-adv-x="450" 
d="M379 690l-34 34l-122 -106l-122 106l-34 -34l156 -164z" />
    <glyph glyph-name="dotlessi" unicode="&#x131;" horiz-adv-x="251" 
d="M169 0v472l-87 -32v-440h87z" />
    <glyph glyph-name="ring" unicode="&#x2da;" horiz-adv-x="450" 
d="M316 605q0 38 -27.5 64t-65.5 26q-18 0 -35 -7t-29.5 -19t-20 -28.5t-7.5 -35.5t7.5 -35.5t20 -28.5t29.5 -19t35 -7q38 0 65.5 26t27.5 64zM281 607q0 -22 -15.5 -42t-42.5 -20q-24 0 -40.5 20t-16.5 42q0 23 17 40t40 17q22 0 40 -17t18 -40z" />
    <glyph glyph-name="exclam" unicode="!" horiz-adv-x="263" 
d="M184 640h-98l9 -469l68 15zM184 55q0 23 -16.5 40t-39.5 17q-25 0 -42 -17t-17 -41q0 -25 17 -42.5t41 -17.5t40.5 17.5t16.5 43.5z" />
    <glyph glyph-name="quotedbl" unicode="&#x22;" horiz-adv-x="407" 
d="M365 621l-74 31l-86 -239l47 -21zM195 621l-74 31l-86 -239l47 -21z" />
    <glyph glyph-name="numbersign" unicode="#" horiz-adv-x="659" 
d="M624 448h-131l73 211l-45 17l-80 -228h-144l75 211l-41 17l-83 -228h-151l-12 -45h146l-45 -137h-138l-14 -45h138l-79 -224l45 -18l83 242h141l-76 -228l45 -14l83 242h155l14 45h-155l51 137h131zM428 403l-52 -137h-142l49 137h145z" />
    <glyph glyph-name="dollar" unicode="$" 
d="M435 170q0 30 -10.5 54.5t-27 44t-35.5 34t-36 25.5l-42 27l31 222q36 -5 64.5 -23t48.5 -41v98q-14 11 -42 21.5t-60 15.5l11 82h-42l-11 -79q-44 -2 -81 -15.5t-63 -37.5t-40.5 -58t-14.5 -75q0 -47 26.5 -86.5t88.5 -77.5l32 -20l-30 -216q-39 5 -70.5 22t-59.5 40
l14 -110q24 -9 50 -16t55 -11l-13 -94h42l13 91h4q43 0 79.5 13t62.5 37t41 58t15 75zM274 577l-28 -198q-29 20 -48 42t-19 55q0 44 28 69.5t67 31.5zM340 161q-1 -41 -29.5 -67t-67.5 -30l28 193q10 -7 22.5 -16t23 -21t17 -26.5t6.5 -32.5z" />
    <glyph glyph-name="percent" unicode="%" horiz-adv-x="806" 
d="M784 166q0 81 -44.5 128.5t-121.5 47.5q-76 0 -120.5 -47.5t-44.5 -128.5t44.5 -128.5t120.5 -47.5q77 0 121.5 47.5t44.5 128.5zM352 472q0 81 -45 128.5t-121 47.5t-120.5 -47.5t-44.5 -128.5t44.5 -128t120.5 -47t121 47t45 128zM283 472q0 -63 -25 -96t-72 -33
q-46 0 -71 33t-25 93q0 65 24 99t72 34q47 0 72 -33.5t25 -96.5zM715 166q0 -63 -25 -96.5t-72 -33.5q-46 0 -71 33.5t-25 93.5q0 65 24.5 98.5t71.5 33.5t72 -33t25 -96zM531 641l-55 21l-207 -662l55 -21z" />
    <glyph glyph-name="ampersand" unicode="&#x26;" horiz-adv-x="676" 
d="M655 1q-15 7 -31.5 13.5t-36.5 18.5q-20 11 -46 30t-60 50q9 12 16.5 34t12 48t5.5 52.5t-2 48.5h121l-20 65h-177l20 -70q3 -20 2.5 -41t-3.5 -40t-7.5 -34.5t-10.5 -24.5q-31 28 -51.5 47.5t-39 38t-38 40t-49.5 53.5l55 38q46 32 73 65.5t27 84.5q0 60 -40 98.5
t-124 38.5q-38 0 -70.5 -11t-56 -31t-37 -48t-13.5 -63q0 -40 18.5 -78t61.5 -89q-24 -15 -46 -30.5t-39.5 -36t-28 -48t-10.5 -66.5q0 -38 15.5 -69t44 -53t67.5 -34t86 -12q58 0 102.5 13t82.5 48q28 -24 45 -36.5t28 -19.5t18 -9.5t15 -7.5zM389 87q-22 -21 -53 -29
t-63 -8q-24 0 -51 7.5t-49 23.5t-36.5 41t-14.5 60q0 30 17 58t48 52q35 -48 84 -96.5t118 -108.5zM331 516q0 -28 -13.5 -55.5t-36.5 -44.5q-1 -1 -10 -7.5t-23 -17t-23 -16.5q-20 24 -32.5 43t-19.5 35.5t-10 31.5t-3 31q0 18 7 32.5t19 24.5t27 15t31 5q43 0 65 -20.5
t22 -56.5z" />
    <glyph glyph-name="quotesingle" unicode="'" horiz-adv-x="227" 
d="M195 621l-74 31l-86 -239l47 -21z" />
    <glyph glyph-name="parenleft" unicode="(" horiz-adv-x="331" 
d="M309 -113q-39 29 -69.5 69.5t-51.5 88.5t-32.5 102.5t-11.5 110.5t11 110.5t32 103.5t52 89t70 68l-51 17q-56 -29 -94 -73t-61 -96t-33.5 -108.5t-10.5 -110.5t10.5 -110.5t33.5 -108.5t61 -96t94 -73z" />
    <glyph glyph-name="parenright" unicode=")" horiz-adv-x="331" 
d="M271 258q0 54 -10.5 110.5t-33.5 108.5t-61.5 96t-93.5 73l-51 -17q39 -28 70 -68t52 -89t32 -103.5t11 -110.5t-11.5 -110.5t-32.5 -102.5t-51.5 -88.5t-69.5 -69.5l51 -17q55 29 93.5 73t61.5 96t33.5 108.5t10.5 110.5z" />
    <glyph glyph-name="asterisk" unicode="*" horiz-adv-x="480" 
d="M467 517l-22 67l-181 -72l13 195h-71l12 -195l-181 72l-21 -67l189 -48l-125 -150l57 -41l105 164l104 -165l57 42l-125 150z" />
    <glyph glyph-name="plus" unicode="+" horiz-adv-x="560" 
d="M529 219v74l-142 -3h-76v118l7 85l-69 -24v-179h-210l-14 -69l124 7h100v-90l-7 -152l69 14v228h87z" />
    <glyph glyph-name="comma" unicode="," horiz-adv-x="280" 
d="M214 14q0 48 -21 75.5t-54 27.5q-26 0 -46 -16.5t-20 -45.5q0 -23 12 -40.5t39 -24.5l16 -4q0 -23 -7 -41t-17 -33t-21.5 -27t-21.5 -22l38 -37q56 51 79.5 101t23.5 87z" />
    <glyph glyph-name="hyphen" unicode="-" horiz-adv-x="330" 
d="M289 228l-7 79l-241 -28l7 -79z" />
    <glyph glyph-name="period" unicode="." horiz-adv-x="271" 
d="M201 52q0 27 -18.5 46t-44.5 19q-29 0 -48.5 -19t-19.5 -47q0 -27 18.5 -46t44.5 -19q29 0 48.5 19.5t19.5 46.5z" />
    <glyph glyph-name="slash" unicode="/" horiz-adv-x="290" 
d="M241 645l-62 17l-138 -765l62 -14z" />
    <glyph glyph-name="zero" unicode="0" 
d="M461 230q0 55 -14.5 99.5t-42 76t-66.5 49t-88 17.5t-88 -17.5t-66.5 -49t-42 -76t-14.5 -99.5t14.5 -100t42 -76.5t66.5 -49t88 -17.5t88 17.5t66.5 49t42 76.5t14.5 100zM377 230q0 -82 -32.5 -130.5t-94.5 -48.5t-95 48.5t-33 130.5q0 81 33 129t93 48q63 0 96 -47.5
t33 -129.5z" />
    <glyph glyph-name="one" unicode="1" horiz-adv-x="393" 
d="M256 0v475l-198 -91v-45l107 27v-366h91z" />
    <glyph glyph-name="two" unicode="2" 
d="M444 79h-263l49 36q35 26 63.5 49.5t48.5 48t31 52t11 61.5q0 67 -43.5 106.5t-121.5 39.5q-47 0 -74 -4t-53 -11l-23 -90q26 8 60 13.5t67 5.5q43 0 67.5 -19t24.5 -64q0 -29 -12.5 -54.5t-32.5 -48t-44 -42t-47 -36.5l-109 -80l25 -41h351z" />
    <glyph glyph-name="three" unicode="3" 
d="M422 -14q0 40 -11.5 69t-31.5 49.5t-46.5 33t-56.5 20.5q13 5 36.5 18.5t46.5 34.5t39.5 49.5t16.5 63.5q0 29 -8.5 56t-29 47.5t-54 33t-84.5 12.5q-40 0 -76.5 -6.5t-60.5 -11.5l-23 -85q15 5 32.5 9t36 7t35.5 4.5t30 1.5q60 0 85.5 -21t25.5 -61q0 -22 -12.5 -43.5
t-31.5 -41t-40 -35.5t-38 -27h-82l-25 -75h88q79 0 113.5 -32t34.5 -80q0 -37 -15 -63.5t-39.5 -43.5t-57 -25t-67.5 -8h-103v-42q23 -11 44.5 -18t58.5 -7q60 0 109.5 15.5t85.5 43.5t55.5 68t19.5 90z" />
    <glyph glyph-name="four" unicode="4" 
d="M484 77h-115v397l-94 -27l-257 -372l15 -75h249v-234l87 29v205h82zM282 77h-193l193 287v-287z" />
    <glyph glyph-name="five" unicode="5" 
d="M439 455h-336l-20 -315q44 -3 89 -9.5t81 -21.5t59 -42.5t23 -73.5q0 -41 -14 -70.5t-37.5 -48.5t-55 -28t-66.5 -9h-109v-45q19 -9 50 -16t56 -7q53 0 101.5 12t85.5 40t58.5 73t21.5 110q0 57 -22.5 96t-60 64t-85 37.5t-98.5 17.5l11 155h236z" />
    <glyph glyph-name="six" unicode="6" 
d="M473 639v45q-11 6 -32.5 14t-55.5 8q-82 0 -145.5 -31.5t-107.5 -86t-67 -128t-23 -157.5q0 -58 9 -115t32.5 -102t65 -72.5t107.5 -27.5q51 0 89.5 20t64 54.5t38.5 82t13 102.5q0 43 -12.5 80.5t-36.5 64.5t-59 42.5t-79 15.5q-29 0 -49 -10t-37 -25v-30h39q30 0 56 -8
t45.5 -26t30.5 -47t11 -70q0 -85 -30 -132t-78 -47q-38 0 -63 21.5t-39.5 55.5t-20.5 76.5t-6 85.5q0 72 15 135t45 110t75 74.5t106 27.5h15h37h47z" />
    <glyph glyph-name="seven" unicode="7" 
d="M464 415l-14 40h-412v-87h325l-284 -568l74 -30z" />
    <glyph glyph-name="eight" unicode="8" 
d="M458 176q0 39 -19.5 72.5t-51.5 59.5l-80 66l20 16q9 7 29.5 23t42 38.5t37.5 51t16 61.5q0 34 -14 61.5t-39 47t-60 29.5t-77 10q-44 0 -80.5 -12t-62.5 -33t-40 -51t-14 -66q0 -44 19.5 -78.5t51.5 -60.5l60 -49l-71 -53q-38 -29 -60.5 -64.5t-22.5 -77.5t16 -74
t43.5 -53.5t65 -32.5t80.5 -11q52 0 91.5 14t66 38.5t40 57.5t13.5 70zM368 163q0 -27 -9 -47.5t-24.5 -33.5t-36 -19.5t-42.5 -6.5q-60 0 -92 32t-32 85q0 21 7.5 39t18 33t21.5 26t19 18l42 37l67 -55q10 -8 20.5 -20t19.5 -26t15 -30t6 -32zM363 559q0 -14 -2.5 -29
t-11 -31t-24.5 -34t-42 -39l-20 -16l-66 54q-26 22 -35 44.5t-9 48.5q0 43 28.5 70.5t81.5 27.5q44 0 72.5 -26.5t27.5 -69.5z" />
    <glyph glyph-name="nine" unicode="9" 
d="M459 156q0 58 -9 115t-33.5 102t-67 72.5t-109.5 27.5q-44 0 -81.5 -16t-65 -46.5t-43 -75t-15.5 -101.5q0 -44 13.5 -83.5t38.5 -69.5t60.5 -48t80.5 -18q29 0 46.5 7.5t37.5 18.5v32h-47q-62 0 -100.5 45.5t-38.5 128.5q0 42 9.5 72t25 49.5t35 28.5t38.5 9
q39 0 65 -21.5t41 -55.5t21.5 -76.5t6.5 -85.5q0 -72 -12.5 -132.5t-39 -104.5t-68 -68.5t-98.5 -24.5h-86v-46q14 -8 35 -15t55 -7q79 0 136.5 29t95 80.5t55.5 122.5t18 155z" />
    <glyph glyph-name="colon" unicode=":" horiz-adv-x="271" 
d="M201 321q0 27 -18.5 46t-44.5 19q-29 0 -48.5 -19t-19.5 -47q0 -27 18.5 -46t44.5 -19q28 0 48 19.5t20 46.5zM201 52q0 27 -18.5 46t-44.5 19q-29 0 -48.5 -19t-19.5 -47q0 -27 18.5 -46t44.5 -19q28 0 48 19.5t20 46.5z" />
    <glyph glyph-name="semicolon" unicode=";" horiz-adv-x="281" 
d="M214 14q0 48 -21 75.5t-54 27.5q-26 0 -46 -16.5t-20 -45.5q0 -23 12 -40.5t39 -24.5l16 -4q0 -23 -7 -41t-17 -33t-21.5 -27t-21.5 -22l38 -37q56 51 79.5 101t23.5 87zM214 321q0 27 -18.5 46t-44.5 19q-29 0 -48.5 -19t-19.5 -47q0 -27 18.5 -46t44.5 -19
q28 0 48 19.5t20 46.5z" />
    <glyph glyph-name="less" unicode="&#x3c;" horiz-adv-x="560" 
d="M488 55l-313 173l204 131l107 65l-35 69l-403 -272l295 -168l103 -69z" />
    <glyph glyph-name="equal" unicode="=" horiz-adv-x="560" 
d="M537 102v72l-171 -3l-319 3l-14 -72l124 7h249zM537 300v74l-142 -3h-351l-11 -69l124 7h249z" />
    <glyph glyph-name="greater" unicode="&#x3e;" horiz-adv-x="560" 
d="M526 222l-403 271l-35 -69l107 -65l204 -131l-313 -173l42 -71l103 69z" />
    <glyph glyph-name="question" unicode="?" horiz-adv-x="371" 
d="M347 525q0 54 -32.5 82.5t-98.5 42.5l-122 26l-52 -71q1 -1 20.5 -4.5t42.5 -7t42 -6.5l19 -3q49 -8 71 -31t22 -50q0 -23 -12.5 -46t-34.5 -46l-99 -109q-18 -20 -22 -32.5t-4 -24.5q0 -38 30 -54t78 -27l41 53q-61 18 -61 47q0 14 7.5 23t18.5 20l90 90
q29 29 42.5 59.5t13.5 68.5zM194 51q0 23 -16.5 40t-39.5 17q-25 0 -42 -17t-17 -41q0 -25 16.5 -42.5t40.5 -17.5t41 17.5t17 43.5z" />
    <glyph glyph-name="at" unicode="@" horiz-adv-x="799" 
d="M785 281q0 77 -27 139.5t-76 106.5t-117 68t-150 24q-87 0 -161 -30t-127.5 -83t-83.5 -126t-30 -158q0 -105 33.5 -185t89 -134t127 -81.5t147.5 -27.5v50q-56 0 -112.5 26t-101.5 74t-73 116.5t-28 154.5q0 75 20.5 139t61 110.5t101 72.5t140.5 26q73 0 127.5 -21.5
t91.5 -61t55.5 -95t18.5 -123.5q0 -53 -13 -92t-34 -65t-48 -39t-54 -13h-27l6 308q1 45 -24 68.5t-80 23.5q-33 0 -63 -9t-55 -23t-45 -31t-33 -34l47 -47l59 55q9 9 26 19t34 10q33 0 43.5 -20t10.5 -49v-58l-130 -37q-42 -12 -71 -46t-29 -83q0 -43 29.5 -71t71.5 -28
q22 0 41 5.5t35 14t29.5 19t23.5 20.5q4 -22 13.5 -34t21 -17.5t22.5 -6.5t17 -1q34 0 77 12.5t81.5 44t65 86t26.5 137.5zM461 84q-8 -4 -20 -7.5t-25.5 -6.5t-27 -5t-23.5 -2q-26 0 -43 15.5t-17 39.5q0 16 6 27.5t16 20t21.5 14.5t22.5 9l90 27v-132z" />
    <glyph glyph-name="A" unicode="A" horiz-adv-x="524" 
d="M524 0l-233 643h-103l22 -54l-222 -589h90l54 151h233l55 -151h104zM339 224h-182l91 254z" />
    <glyph glyph-name="B" unicode="B" horiz-adv-x="565" 
d="M511 171q0 66 -33.5 108.5t-96.5 58.5q16 7 35 19.5t35.5 31.5t27 44.5t10.5 59.5q0 35 -15.5 64t-44 50t-68 32.5t-86.5 11.5q-57 0 -104.5 -5.5t-80.5 -13.5v-619q12 -3 32.5 -8t46.5 -9t55.5 -7t58.5 -3q49 0 91 12.5t72.5 36.5t47.5 58.5t17 77.5zM409 180
q0 -57 -37.5 -88.5t-100.5 -31.5q-38 0 -58.5 6.5t-27.5 9.5v214h79q66 0 105.5 -26.5t39.5 -83.5zM389 473q0 -43 -19 -73t-42 -45h-14h-36h-46h-47v225h61q67 0 105 -29t38 -78z" />
    <glyph glyph-name="C" unicode="C" horiz-adv-x="610" 
d="M555 40v98q-35 -28 -85.5 -47t-110.5 -19q-49 0 -90.5 19.5t-72 53.5t-47.5 80t-17 99q0 58 17 104t47.5 78t72 49t90.5 17q29 0 58 -6t55 -16t47.5 -21.5t35.5 -22.5v96q-14 8 -34.5 17t-45.5 16.5t-54 12.5t-59 5q-74 0 -135 -25t-105 -70t-68 -107t-24 -135
q0 -71 23 -131t66 -104t104.5 -68.5t138.5 -24.5q30 0 59 5t54 12.5t45.5 16.5t34.5 18z" />
    <glyph glyph-name="D" unicode="D" horiz-adv-x="643" 
d="M613 318q0 77 -22.5 138.5t-65 105t-104 67t-138.5 23.5q-62 0 -108 -6t-85 -14v-619q36 -10 85 -18t107 -8q75 0 136.5 24t104.5 68t66.5 104.5t23.5 134.5zM511 317q0 -49 -15.5 -95t-44.5 -82t-71.5 -57.5t-97.5 -21.5q-27 0 -54.5 5t-42.5 9v505h73q61 0 108 -19.5
t79 -54t49 -83t17 -106.5z" />
    <glyph glyph-name="E" unicode="E" horiz-adv-x="496" 
d="M456 77h-271v212h181l29 73h-210v206h223l30 74h-348v-642h326z" />
    <glyph glyph-name="F" unicode="F" horiz-adv-x="456" 
d="M444 642h-354v-642h95v275h186l30 74h-216v219h229z" />
    <glyph glyph-name="G" unicode="G" horiz-adv-x="653" 
d="M569 -14v351h-185l-30 -73h124v-180q-20 -8 -50 -12t-59 -4q-54 0 -98 20t-74.5 54.5t-47.5 81.5t-17 100q0 55 18.5 100.5t51 78.5t75.5 51t92 18q29 0 58 -6t55 -16t47.5 -21.5t35.5 -22.5v96q-14 8 -34.5 17t-45.5 16.5t-54 12.5t-59 5q-74 0 -136.5 -25t-108.5 -70
t-71.5 -107t-25.5 -135q0 -74 23.5 -134.5t67.5 -104t107.5 -67.5t143.5 -24q45 0 82 9t60 22z" />
    <glyph glyph-name="H" unicode="H" horiz-adv-x="683" 
d="M593 0v642h-95v-270h-313v270h-95v-642h95v294h313v-294h95z" />
    <glyph glyph-name="I" unicode="I" horiz-adv-x="275" 
d="M185 0v642h-95v-642h95z" />
    <glyph glyph-name="J" unicode="J" horiz-adv-x="274" 
d="M184 0v642h-95v-642q0 -59 -25.5 -86t-79.5 -27h-40l36 -82q47 0 85 11t64.5 34.5t40.5 60.5t14 89z" />
    <glyph glyph-name="K" unicode="K" horiz-adv-x="600" 
d="M612 0l-304 335l274 307h-120l-266 -321l279 -321h137zM185 0v642h-95v-642h95z" />
    <glyph glyph-name="L" unicode="L" horiz-adv-x="441" 
d="M442 77h-257v565h-95v-642h312z" />
    <glyph glyph-name="M" unicode="M" horiz-adv-x="780" 
d="M171 0v474l207 -290l217 289v-473h95v642h-54l-242 -317l-225 317h-118l40 -56v-586h80z" />
    <glyph glyph-name="N" unicode="N" horiz-adv-x="680" 
d="M590 0v642h-81v-443l-354 443h-120l64 -80v-562h80v461l367 -461h44z" />
    <glyph glyph-name="O" unicode="O" horiz-adv-x="692" 
d="M662 320q0 73 -23.5 134t-65.5 105.5t-100 69t-127 24.5t-127 -24.5t-100 -69t-65.5 -105.5t-23.5 -134q0 -74 23.5 -135t65.5 -105t100 -68.5t127 -24.5t127 24.5t100 69t65.5 105.5t23.5 134zM560 320q0 -56 -14.5 -102.5t-41.5 -80t-67 -52.5t-91 -19t-91 19
t-67.5 52.5t-41.5 80t-14 102.5q0 55 14.5 102t41.5 80.5t67 52.5t91 19t91 -19t67 -52.5t41.5 -80.5t14.5 -102z" />
    <glyph glyph-name="P" unicode="P" horiz-adv-x="530" 
d="M506 443q0 50 -18 89t-49.5 65.5t-75 40.5t-95.5 14q-60 0 -109.5 -7t-68.5 -14v-631h95v580h36q34 0 66.5 -6t58 -21t41.5 -41.5t16 -67.5q0 -84 -37.5 -122.5t-108.5 -38.5h-18v-40q32 -11 61 -11q51 0 89.5 17.5t64.5 46.5t39 67t13 80z" />
    <glyph glyph-name="Q" unicode="Q" horiz-adv-x="692" 
d="M662 320q0 73 -23.5 134t-65.5 105.5t-100 69t-127 24.5t-127 -24.5t-100 -69t-65.5 -105.5t-23.5 -134q0 -74 23.5 -135t65.5 -105t100 -68.5t127 -24.5q16 0 31.5 1.5t29.5 3.5l120 -150h133l-166 188q75 41 121.5 114.5t46.5 175.5zM560 320q0 -56 -14.5 -102.5
t-41.5 -80t-67 -52.5t-91 -19t-91 19t-67.5 52.5t-41.5 80t-14 102.5q0 55 14.5 102t41.5 80.5t67 52.5t91 19t91 -19t67 -52.5t41.5 -80.5t14.5 -102z" />
    <glyph glyph-name="R" unicode="R" horiz-adv-x="579" 
d="M587 0l-220 290q18 7 40.5 22t42 37.5t33 52.5t13.5 68q0 46 -17.5 80t-48 56.5t-72 34t-90.5 11.5q-60 0 -100 -6t-78 -14v-632h95v261l95 -1l187 -260h120zM400 461q0 -26 -8.5 -47t-21.5 -37.5t-27.5 -28t-27.5 -18.5h-130v250h56q81 0 120 -28t39 -91z" />
    <glyph glyph-name="S" unicode="S" horiz-adv-x="485" 
d="M431 170q0 30 -11 55t-28 44.5t-37 34.5t-38 26l-59 37q-18 12 -35.5 23t-31 23.5t-21.5 27.5t-8 35q0 24 10 42.5t27 30.5t38.5 18t45.5 6q45 0 79.5 -18.5t58.5 -44.5v101q-9 6 -24 13t-34 13t-39.5 10t-40.5 4q-48 0 -87.5 -13t-68 -37.5t-44 -59t-15.5 -76.5
q0 -47 28 -88t91 -79l59 -36q10 -6 24.5 -14.5t28.5 -21t24 -28.5t10 -37q0 -22 -9.5 -39.5t-25.5 -30t-36.5 -19.5t-42.5 -7q-52 0 -91 17.5t-73 44.5l14 -110q34 -13 73 -21.5t83 -8.5t82 13t65.5 37t43 58t15.5 75z" />
    <glyph glyph-name="T" unicode="T" horiz-adv-x="472" 
d="M491 642h-491v-78h191v-564h95v564h175z" />
    <glyph glyph-name="U" unicode="U" horiz-adv-x="652" 
d="M572 223v417h-80v-410q0 -35 -11 -65.5t-32 -53t-51 -35.5t-67 -13q-38 0 -66.5 13.5t-48 38.5t-29 58.5t-9.5 74.5v392h-95v-398q0 -125 66.5 -190.5t181.5 -65.5q54 0 98.5 18.5t76 51t49 75.5t17.5 92z" />
    <glyph glyph-name="V" unicode="V" horiz-adv-x="513" 
d="M519 642h-85l-175 -517l-164 517h-100l214 -652l82 14z" />
    <glyph glyph-name="W" unicode="W" horiz-adv-x="816" 
d="M826 642h-85l-161 -510l-147 510h-97l45 -149l-143 -368l-139 517h-99l187 -655l76 18l150 379l120 -397l80 17z" />
    <glyph glyph-name="X" unicode="X" horiz-adv-x="527" 
d="M527 0l-216 344l190 298h-90l-145 -227l-143 227h-107l196 -312l-211 -330h90l166 259l163 -259h107z" />
    <glyph glyph-name="Y" unicode="Y" horiz-adv-x="477" 
d="M491 642h-90l-155 -281l-149 281h-107l196 -369v-273h95v264z" />
    <glyph glyph-name="Z" unicode="Z" horiz-adv-x="497" 
d="M507 78h-351l329 564h-460v-74h316l-333 -568h469z" />
    <glyph glyph-name="bracketleft" unicode="[" horiz-adv-x="360" 
d="M336 -70l-152 25v621l152 18l-7 54l-221 -7v-754l221 -11z" />
    <glyph glyph-name="backslash" unicode="\" horiz-adv-x="290" 
d="M255 -103l-138 765l-62 -17l138 -762z" />
    <glyph glyph-name="bracketright" unicode="]" horiz-adv-x="360" 
d="M252 -113v754l-221 7l-7 -54l152 -18v-621l-152 -25l7 -54z" />
    <glyph glyph-name="asciicircum" unicode="^" 
d="M131 337l119 287l119 -287h85l-171 370h-66l-171 -370h85z" />
    <glyph glyph-name="underscore" unicode="_" horiz-adv-x="483" 
d="M483 -97v63h-483v-63h483z" />
    <glyph glyph-name="grave" unicode="`" horiz-adv-x="450" 
d="M311 538l-134 216l-66 -46l158 -200z" />
    <glyph glyph-name="a" unicode="a" horiz-adv-x="480" 
d="M450 52q-21 3 -34.5 4t-22 5.5t-11.5 14.5t-3 31l4 264q1 48 -28.5 74.5t-85.5 26.5q-36 0 -69 -10t-60.5 -25.5t-49 -34.5t-36.5 -37l52 -51l64 60q10 10 29 21t37 11q36 0 48 -22t12 -54v-64l-143 -40q-23 -6 -43 -17t-35 -27t-24 -38t-9 -50q0 -23 8.5 -43t23.5 -34.5
t35.5 -22.5t44.5 -8q48 0 83.5 17t57.5 38q5 -20 16 -31t23 -16.5t24 -6.5t19 -1q10 0 26 3.5t31 10.5zM296 84q-17 -11 -47 -21.5t-65 -10.5q-31 0 -44 18.5t-13 43.5q0 17 6.5 28.5t16.5 19t22.5 12.5t24.5 8l99 29v-127z" />
    <glyph glyph-name="b" unicode="b" horiz-adv-x="535" 
d="M493 243q0 46 -12 87t-36 72.5t-59 50t-80 18.5q-36 0 -71 -13t-67 -43v295l-86 -29v-698l73 37q18 -15 50 -24.5t64 -9.5q54 0 95.5 20.5t70 56t43.5 82t15 98.5zM401 223q0 -29 -7.5 -60t-24 -56.5t-42.5 -42t-64 -16.5q-21 0 -47.5 9.5t-46.5 26.5v295q16 11 37 16
t39 5q43 0 73 -14t48.5 -38t26.5 -56t8 -69z" />
    <glyph glyph-name="c" unicode="c" horiz-adv-x="431" 
d="M419 381q-22 50 -65.5 70t-89.5 20q-45 0 -85 -17.5t-70.5 -50t-48.5 -78.5t-18 -104q0 -54 14 -97t41 -74t65.5 -47.5t88.5 -16.5q32 0 69 8.5t63 27.5l17 74q-25 -14 -55.5 -24.5t-68.5 -10.5t-65 13t-44 36t-25 55t-8 71q0 42 11.5 74.5t30 54t41 33t44.5 11.5h18
l74 -72z" />
    <glyph glyph-name="d" unicode="d" horiz-adv-x="534" 
d="M452 8v708l-87 -29v-241q-29 17 -52 22t-46 5q-50 0 -91 -19t-71 -53t-46.5 -82t-16.5 -106q0 -42 12 -83t35.5 -73t59.5 -51.5t84 -19.5q42 0 73.5 15.5t63.5 48.5v-72zM365 86q-13 -11 -33.5 -20t-41.5 -9q-81 0 -118.5 42t-37.5 142q0 36 10.5 67t29 53.5t44 35.5
t55.5 13q37 0 64.5 -23.5t27.5 -72.5v-228z" />
    <glyph glyph-name="e" unicode="e" horiz-adv-x="476" 
d="M430 312q0 82 -46 120.5t-124 38.5q-51 0 -91 -19.5t-68.5 -53t-43.5 -78.5t-15 -96q0 -50 13.5 -93t40.5 -75.5t66.5 -51t90.5 -18.5q38 0 75.5 7t60.5 18l22 81q-31 -16 -66 -23.5t-71 -7.5t-63 12t-45 32.5t-27 47.5t-9 57v22l293 11q3 14 5 34.5t2 34.5zM341 336
q0 -7 -1 -17t-4 -21l-202 -9q2 21 11 43.5t24.5 40.5t38 29.5t50.5 11.5q38 0 60.5 -21t22.5 -57z" />
    <glyph glyph-name="f" unicode="f" horiz-adv-x="286" 
d="M412 691q-24 12 -51 19.5t-65 7.5q-49 0 -87 -17t-63.5 -48t-38.5 -74t-13 -94v-37h-57l-23 -69h80v-379h87v379h91l23 69h-114v69q0 34 8.5 60.5t22.5 44t30.5 26.5t33.5 9h17l83 -32z" />
    <glyph glyph-name="g" unicode="g" horiz-adv-x="518" 
d="M527 449h-146q-18 7 -50.5 14.5t-68.5 7.5q-41 0 -79.5 -9t-68 -28.5t-47.5 -51t-18 -76.5q0 -49 28 -83t66 -51q-28 -17 -48 -41.5t-20 -55.5q0 -18 13.5 -40.5t43.5 -29.5q-44 -16 -72 -44.5t-28 -67.5q0 -31 15.5 -53.5t41 -36.5t59.5 -21t72 -7q56 0 103 14.5
t81.5 39.5t53.5 57t19 68q0 29 -11 49t-29 32t-40.5 17.5t-46.5 5.5h-108q-38 0 -65 12t-27 38q0 15 9.5 29t20.5 22q17 -6 34 -7.5t35 -1.5q41 0 77 12.5t63 37t43 61t16 84.5v16q0 9 -2 17h56zM358 318q0 -20 -6.5 -39.5t-19.5 -35.5t-33.5 -25.5t-48.5 -9.5
q-49 0 -80 26.5t-31 71.5q0 55 35 81t87 26q29 0 48 -5.5t39 -13.5q6 -19 8 -36.5t2 -39.5zM389 -70q0 -19 -9.5 -37t-27.5 -31.5t-44.5 -21.5t-60.5 -8q-23 0 -47 3.5t-43.5 12.5t-31.5 25t-12 42q0 14 4.5 26t11 21t13.5 15t12 9l146 -5q21 -1 37.5 -2.5t28 -7t17.5 -15
t6 -26.5z" />
    <glyph glyph-name="h" unicode="h" horiz-adv-x="531" 
d="M449 0v334q0 72 -35 104.5t-95 32.5q-35 0 -75 -12.5t-75 -45.5v300l-87 -23v-690h87v358q6 6 17 14.5t25 15.5t29 12t29 5q55 0 74 -28t19 -95v-282h87z" />
    <glyph glyph-name="i" unicode="i" horiz-adv-x="251" 
d="M169 0v472l-87 -32v-440h87zM189 644q0 24 -16.5 39.5t-42.5 15.5t-42.5 -15.5t-16.5 -39.5t16.5 -39.5t42.5 -15.5t42.5 15t16.5 40z" />
    <glyph glyph-name="j" unicode="j" horiz-adv-x="259" 
d="M177 -2v475l-87 -32v-443q0 -35 -6 -62t-21 -45t-41.5 -27t-67.5 -9l24 -68q199 2 199 211zM191 644q0 24 -17 39.5t-42 15.5q-26 0 -42.5 -15.5t-16.5 -39.5t16.5 -39.5t42.5 -15.5q25 0 42 15t17 40z" />
    <glyph glyph-name="k" unicode="k" horiz-adv-x="487" 
d="M169 0v712l-87 -32v-680h87zM483 0l-201 264l192 191h-115l-174 -205q21 -33 46.5 -69.5t50.5 -71t48 -63.5t40 -46h113z" />
    <glyph glyph-name="l" unicode="l" horiz-adv-x="251" 
d="M169 0v712l-87 -32v-680h87z" />
    <glyph glyph-name="m" unicode="m" horiz-adv-x="800" 
d="M718 0v331q0 72 -35 104.5t-95 32.5q-35 0 -75 -11.5t-81 -47.5h-3q-16 32 -45.5 47t-69.5 15q-35 0 -72.5 -12.5t-72.5 -45.5v57l-87 -23v-447h87v358q6 6 16.5 14.5t23.5 15.5t27 12t28 5q55 0 74 -28t19 -95v-282h87v334v13q0 7 -1 13q6 6 16.5 13.5t23.5 14
t27.5 10.5t27.5 4q55 0 74 -28t19 -95v-279h87z" />
    <glyph glyph-name="n" unicode="n" horiz-adv-x="531" 
d="M449 0v334q0 72 -35 104.5t-95 32.5q-35 0 -75 -12.5t-75 -45.5v57l-87 -23v-447h87v358q6 6 17 14.5t25 15.5t29 12t29 5q55 0 74 -28t19 -95v-282h87z" />
    <glyph glyph-name="o" unicode="o" horiz-adv-x="517" 
d="M475 254q0 49 -14 89t-39.5 68.5t-61 44.5t-78.5 16q-112 0 -176 -67t-64 -201q0 -50 14 -90t39 -68.5t60.5 -44t77.5 -15.5q53 0 97.5 17t76.5 50.5t50 84t18 116.5zM383 220q0 -39 -10 -70.5t-27.5 -54.5t-39.5 -35.5t-46 -12.5q-68 0 -97 47.5t-29 140.5q0 40 10 72.5
t26.5 55.5t38.5 35.5t46 12.5q66 0 97 -48.5t31 -142.5z" />
    <glyph glyph-name="p" unicode="p" horiz-adv-x="535" 
d="M493 244q0 43 -12 84t-35 73t-58 51t-81 19q-45 0 -79.5 -16.5t-58.5 -39.5v57l-87 -25v-675l87 29v211q10 -8 24 -13.5t27.5 -8.5t25.5 -4.5t20 -1.5q49 0 90.5 18.5t72 52.5t47.5 82t17 107zM401 217q0 -35 -10 -66t-28 -54.5t-43.5 -37t-56.5 -13.5q-45 0 -69.5 29
t-24.5 79v226q11 5 34 12.5t44 7.5q41 0 70.5 -13t48 -37t27 -57.5t8.5 -75.5z" />
    <glyph glyph-name="q" unicode="q" horiz-adv-x="535" 
d="M453 -204v676l-73 -35q-18 15 -50 24.5t-64 9.5q-53 0 -94.5 -20.5t-70.5 -55.5t-44 -81.5t-15 -99.5q0 -46 12.5 -87t36 -72.5t58.5 -50t80 -18.5q36 0 69.5 11t68.5 46v-276zM366 78q-16 -9 -37 -15.5t-39 -6.5q-45 0 -75 14.5t-48 39.5t-25.5 57t-7.5 67q0 29 7.5 60
t24 56.5t42.5 42t64 16.5q21 0 47.5 -9.5t46.5 -26.5v-295z" />
    <glyph glyph-name="r" unicode="r" horiz-adv-x="335" 
d="M356 435q-12 15 -27 25.5t-41 10.5q-30 0 -58 -19.5t-61 -76.5v97l-87 -25v-447h87v308q6 9 16 22.5t21.5 26t23 21t21.5 8.5l43 -31z" />
    <glyph glyph-name="s" unicode="s" horiz-adv-x="406" 
d="M362 120q0 30 -8 51.5t-22.5 37.5t-33.5 27t-40 20l-66 26q-28 11 -43.5 25t-15.5 41q0 16 7.5 27t18.5 18t25 10t28 3q30 0 60.5 -10.5t56.5 -24.5l27 68q-27 14 -67 23t-78 9q-31 0 -60 -8.5t-52 -25.5t-37 -41.5t-14 -57.5q0 -55 28 -85t73 -47l59 -23q11 -5 23 -10.5
t21.5 -13.5t16 -18.5t6.5 -24.5q0 -31 -22.5 -47.5t-57.5 -16.5q-31 0 -63.5 11.5t-60.5 26.5l-32 -66q43 -20 84.5 -29t74.5 -9q32 0 61.5 8t52.5 24.5t36.5 42t13.5 59.5z" />
    <glyph glyph-name="t" unicode="t" horiz-adv-x="314" 
d="M308 455h-135l10 136l-96 -42v-94h-58l-33 -69h91v-263q0 -75 26.5 -106t87.5 -31q23 0 42 5t42 10l20 76q-13 -7 -30.5 -13.5t-40.5 -6.5q-32 0 -46.5 17t-14.5 63v249h105z" />
    <glyph glyph-name="u" unicode="u" horiz-adv-x="529" 
d="M447 10v462l-85 -24v-349q-10 -9 -23.5 -17.5t-28 -15t-28.5 -10.5t-25 -4q-27 0 -44 6.5t-27 22t-13.5 41t-3.5 63.5v287l-87 -25v-314q0 -75 34 -111t94 -36q40 0 80 16t72 42v-66z" />
    <glyph glyph-name="v" unicode="v" horiz-adv-x="410" 
d="M410 455h-81l-120 -352l-114 352h-91l155 -468l84 24z" />
    <glyph glyph-name="w" unicode="w" horiz-adv-x="646" 
d="M646 455h-81l-114 -356l-101 356h-93l40 -131l-95 -225l-105 356h-92l145 -468l75 25l99 224l78 -249l82 24z" />
    <glyph glyph-name="x" unicode="x" horiz-adv-x="407" 
d="M403 0l-148 240l144 215h-88l-98 -150l-92 150h-99l138 -224l-156 -231h90l106 165l101 -165h102z" />
    <glyph glyph-name="y" unicode="y" horiz-adv-x="413" 
d="M413 455h-84l-112 -340l-117 340h-95l168 -470q-38 -101 -124 -101h-65l41 -97q48 1 83 20t59.5 48.5t41 64t28.5 66.5z" />
    <glyph glyph-name="z" unicode="z" horiz-adv-x="403" 
d="M379 73h-244l226 337v45h-303l-27 -72h217l-228 -347v-36h340z" />
    <glyph glyph-name="braceleft" unicode="{" horiz-adv-x="369" 
d="M348 -248v51q-43 0 -70 4t-42 17.5t-20.5 39.5t-5.5 70v194q0 49 -12 75.5t-49 40.5l-28 11l25 10q38 15 51 41.5t13 75.5v174q0 44 5.5 70t20.5 39.5t42 17.5t70 4v51h-14q-58 0 -97 -9t-62 -27t-32.5 -45t-8.5 -64l7 -199q1 -29 -4.5 -50t-20.5 -35t-40 -21.5t-62 -9.5
v-46q37 -2 62 -9.5t39.5 -21.5t20.5 -35t5 -50l-7 -219q-1 -37 8.5 -64t32.5 -45t62 -27t97 -9h14z" />
    <glyph glyph-name="bar" unicode="|" horiz-adv-x="369" 
d="M220 -262v1060h-76v-1060h76z" />
    <glyph glyph-name="braceright" unicode="}" horiz-adv-x="369" 
d="M355 232v46q-38 2 -62.5 9.5t-39.5 21.5t-20.5 35t-4.5 50l7 199q1 37 -8.5 64t-32.5 45t-62 27t-97 9h-14v-51q43 0 70 -4t42 -17.5t20.5 -39.5t5.5 -70v-174q0 -49 13 -75.5t51 -41.5l25 -10l-28 -11q-37 -14 -49 -40.5t-12 -75.5v-194q0 -44 -5.5 -70t-20.5 -39.5
t-42 -17.5t-70 -4v-51h14q58 0 97 9t62 27t32.5 45t8.5 64l-7 219q-1 29 5 50t20.5 35t39 21.5t62.5 9.5z" />
    <glyph glyph-name="asciitilde" unicode="~" horiz-adv-x="450" 
d="M435 669l-35 34q-6 -9 -15 -22t-19 -25t-21.5 -20t-22.5 -8q-12 0 -27.5 8.5t-31.5 19t-31 19t-27 8.5h-28l-84 -111l38 -28q5 7 13.5 19.5t18.5 24t21 20t22 8.5q10 0 24.5 -9t30.5 -19.5t32 -19.5t30 -9h28z" />
    <glyph glyph-name="quotesinglbase" unicode="&#x201a;" horiz-adv-x="265" 
d="M205 14q0 48 -21 75.5t-54 27.5q-26 0 -46 -16.5t-20 -45.5q0 -23 12 -40.5t39 -24.5l16 -4q0 -23 -7 -41t-17 -33t-21.5 -27t-21.5 -22l38 -37q56 51 79.5 101t23.5 87z" />
    <glyph glyph-name="florin" unicode="&#x192;" 
d="M534 689q-23 12 -59.5 20.5t-74.5 8.5q-49 0 -87.5 -17t-66 -48t-42.5 -74t-18 -94l-4 -77h-89l-30 -69h115l-18 -362q-4 -78 -34 -111.5t-69 -33.5h-17l-99 60l-50 -77q12 -7 29 -14t36 -12.5t39 -9t39 -3.5q49 0 87.5 17t66 48t42.5 74t18 94l17 330h123l36 69h-156
l6 109q2 39 12.5 66.5t25 45t31.5 25.5t34 8h17l95 -43z" />
    <glyph glyph-name="quotedblbase" unicode="&#x201e;" horiz-adv-x="455" 
d="M395 28q0 48 -21 75.5t-54 27.5q-26 0 -46 -16.5t-20 -45.5q0 -23 12 -40.5t39 -24.5l16 -4q0 -23 -7 -41t-17 -33t-21.5 -27t-21.5 -22l38 -37q56 51 79.5 101t23.5 87zM205 28q0 48 -21 75.5t-54 27.5q-26 0 -46 -16.5t-20 -45.5q0 -23 12 -40.5t39 -24.5l16 -4
q0 -23 -7 -41t-17 -33t-21.5 -27t-21.5 -22l38 -37q56 51 79.5 101t23.5 87z" />
    <glyph glyph-name="ellipsis" unicode="&#x2026;" horiz-adv-x="807" 
d="M738 52q0 27 -18.5 46t-44.5 19q-29 0 -48.5 -19t-19.5 -47q0 -27 18.5 -46t44.5 -19q29 0 48.5 19.5t19.5 46.5zM469 52q0 27 -18.5 46t-44.5 19q-29 0 -48.5 -19t-19.5 -47q0 -27 18.5 -46t44.5 -19q29 0 48.5 19.5t19.5 46.5zM200 52q0 27 -18.5 46t-44.5 19
q-29 0 -48.5 -19t-19.5 -47q0 -27 18.5 -46t44.5 -19q29 0 48.5 19.5t19.5 46.5z" />
    <glyph glyph-name="dagger" unicode="&#x2020;" horiz-adv-x="497" 
d="M279 -69v542l200 -7v68l-200 -16v172h-69v-171l-193 15v-68l193 6v-541q0 -16 9.5 -28.5t25.5 -12.5t25 12.5t9 28.5z" />
    <glyph glyph-name="circumflex" unicode="&#x2c6;" horiz-adv-x="450" 
d="M379 572l-156 144l-156 -144l34 -34l122 96l122 -96z" />
    <glyph glyph-name="perthousand" unicode="&#x2030;" horiz-adv-x="1165" 
d="M1144 166q0 81 -44.5 128.5t-121.5 47.5q-76 0 -120.5 -47.5t-44.5 -128.5t44.5 -128.5t120.5 -47.5q77 0 121.5 47.5t44.5 128.5zM784 166q0 81 -44.5 128.5t-121.5 47.5q-76 0 -120.5 -47.5t-44.5 -128.5t44.5 -128.5t120.5 -47.5q77 0 121.5 47.5t44.5 128.5zM352 472
q0 81 -45 128.5t-121 47.5t-120.5 -47.5t-44.5 -128.5t44.5 -128t120.5 -47t121 47t45 128zM283 472q0 -63 -25 -96t-72 -33q-46 0 -71 33t-25 93q0 65 24 99t72 34q47 0 72 -33.5t25 -96.5zM715 166q0 -63 -25 -96.5t-72 -33.5q-46 0 -71 33.5t-25 93.5q0 65 24.5 98.5
t71.5 33.5t72 -33t25 -96zM1075 166q0 -63 -25 -96.5t-72 -33.5q-46 0 -71 33.5t-25 93.5q0 65 24.5 98.5t71.5 33.5t72 -33t25 -96zM531 641l-55 21l-207 -662l55 -21z" />
    <glyph glyph-name="guilsinglleft" unicode="&#x2039;" horiz-adv-x="266" 
d="M221 79l-93 169l93 153l-61 7l-128 -160l128 -180z" />
    <glyph glyph-name="OE" unicode="&#x152;" horiz-adv-x="915" 
d="M875 73h-281v216h171l29 73h-200v206h233l30 74h-358v-33q-27 20 -67 32t-81 12q-69 0 -128 -24.5t-101.5 -69t-67 -105.5t-24.5 -134t24.5 -134t67 -105.5t101.5 -69t128 -24.5q41 0 79 12t69 32v-31h336zM499 124q-28 -28 -65 -43t-83 -15q-51 0 -91.5 19t-69 52.5
t-43.5 80t-15 102.5q0 55 15 102t43.5 80.5t69 52.5t91.5 19q46 0 83 -15t65 -43v-392z" />
    <glyph glyph-name="quoteleft" unicode="&#x2018;" horiz-adv-x="265" 
d="M205 433q0 23 -12 40.5t-39 24.5l-16 4q0 22 7 40.5t17 33.5t21.5 27t21.5 22l-38 37q-56 -51 -79.5 -101t-23.5 -87q0 -48 21 -75.5t54 -27.5q26 0 46 16.5t20 45.5z" />
    <glyph glyph-name="quoteright" unicode="&#x2019;" horiz-adv-x="265" 
d="M201 550q0 48 -21 75.5t-54 27.5q-26 0 -46 -16.5t-20 -45.5q0 -23 12 -40.5t39 -24.5l16 -4q0 -23 -7 -41t-17 -33t-21.5 -27t-21.5 -22l38 -37q56 51 79.5 101t23.5 87z" />
    <glyph glyph-name="quotedblleft" unicode="&#x201c;" horiz-adv-x="455" 
d="M395 437q0 23 -12 40.5t-39 24.5l-16 4q0 22 7 40.5t17 33.5t21.5 27t21.5 22l-38 37q-56 -51 -79.5 -101t-23.5 -87q0 -48 21 -75.5t54 -27.5q26 0 46 16.5t20 45.5zM205 437q0 23 -12 40.5t-39 24.5l-16 4q0 22 7 40.5t17 33.5t21.5 27t21.5 22l-38 37
q-56 -51 -79.5 -101t-23.5 -87q0 -48 21 -75.5t54 -27.5q26 0 46 16.5t20 45.5z" />
    <glyph glyph-name="quotedblright" unicode="&#x201d;" horiz-adv-x="455" 
d="M391 550q0 48 -21 75.5t-54 27.5q-26 0 -46 -16.5t-20 -45.5q0 -23 12 -40.5t39 -24.5l16 -4q0 -23 -7 -41t-17 -33t-21.5 -27t-21.5 -22l38 -37q56 51 79.5 101t23.5 87zM201 550q0 48 -21 75.5t-54 27.5q-26 0 -46 -16.5t-20 -45.5q0 -23 12 -40.5t39 -24.5l16 -4
q0 -23 -7 -41t-17 -33t-21.5 -27t-21.5 -22l38 -37q56 51 79.5 101t23.5 87z" />
    <glyph glyph-name="bullet" unicode="&#x2022;" horiz-adv-x="441" 
d="M324 314q0 21 -8 39t-22 31.5t-33 21.5t-40 8t-39.5 -7.5t-33 -20.5t-23 -31t-8.5 -38q0 -23 8 -43t22 -35t33.5 -23.5t40.5 -8.5t40 8.5t33 23t22 34t8 41.5z" />
    <glyph glyph-name="endash" unicode="&#x2013;" horiz-adv-x="497" 
d="M497 228v62h-497v-62h497z" />
    <glyph glyph-name="emdash" unicode="&#x2014;" horiz-adv-x="983" 
d="M993 228v62h-993v-62h993z" />
    <glyph glyph-name="tilde" unicode="&#x2dc;" horiz-adv-x="450" 
d="M435 669l-35 34q-6 -9 -15 -22t-19 -25t-21.5 -20t-22.5 -8q-12 0 -27.5 8.5t-31.5 19t-31 19t-27 8.5h-28l-84 -111l38 -28q5 7 13.5 19.5t18.5 24t21 20t22 8.5q10 0 24.5 -9t30.5 -19.5t32 -19.5t30 -9h28z" />
    <glyph glyph-name="trademark" unicode="&#x2122;" horiz-adv-x="1182" 
d="M1049 229v412h-41l-186 -203l-186 203h-87l46 -52v-358h61v289l153 -173l167 185v-303h73zM458 641h-368v-53h138v-356h74v356h135z" />
    <glyph glyph-name="guilsinglright" unicode="&#x203a;" horiz-adv-x="266" 
d="M234 248l-128 160l-61 -7l93 -153l-93 -169l61 -11z" />
    <glyph glyph-name="oe" unicode="&#x153;" horiz-adv-x="822" 
d="M776 312q0 82 -42 121t-123 39q-51 0 -92.5 -22.5t-70.5 -60.5q-26 40 -66.5 61.5t-93.5 21.5t-98 -18t-78 -52t-51.5 -84t-18.5 -114q0 -49 14 -89t40 -68.5t62.5 -44.5t80.5 -16q63 0 112 23t81 67q26 -42 69 -66t103 -24q38 0 73 7t58 18l22 81q-32 -15 -64 -21
t-68 -6q-33 0 -59.5 13t-45.5 33.5t-29 46.5t-10 52v3q1 5 1 9v10l285 11q4 12 6.5 33.5t2.5 35.5zM393 223q0 -40 -10 -72.5t-27.5 -55.5t-40.5 -35.5t-49 -12.5q-66 0 -99 48.5t-33 142.5q0 39 10 70.5t27 54.5t40.5 35.5t49.5 12.5q68 0 100 -47.5t32 -140.5zM689 336
q0 -7 -1 -17t-6 -21l-196 -9q2 21 11 43.5t24.5 41t37.5 30t50 11.5q39 0 59.5 -21.5t20.5 -57.5z" />
    <glyph glyph-name="Ydieresis" unicode="&#x178;" horiz-adv-x="477" 
d="M491 642h-90l-155 -281l-149 281h-107l196 -369v-273h95v264zM212 741q0 21 -14.5 36.5t-34.5 15.5q-18 0 -32 -15t-16 -37q-2 -26 12 -46t36 -20q20 0 34.5 19.5t14.5 46.5zM374 741q0 21 -14.5 36.5t-34.5 15.5q-18 0 -32 -15t-16 -37q-2 -26 12 -46t36 -20
q20 0 34.5 19.5t14.5 46.5z" />
    <glyph glyph-name="nonbreakingspace" unicode="&#xa0;" 
 />
    <glyph glyph-name="exclamdown" unicode="&#xa1;" horiz-adv-x="263" 
d="M167 -6l-9 469l-68 -15l-21 -454h98zM184 580q0 25 -17 42.5t-41 17.5t-40.5 -17.5t-16.5 -43.5q0 -23 16.5 -40t39.5 -17q25 0 42 17t17 41z" />
    <glyph glyph-name="cent" unicode="&#xa2;" 
d="M443 31v85q-24 -19 -58.5 -34t-75.5 -18v372q41 -4 77.5 -20.5t56.5 -31.5v86q-19 12 -55.5 24.5t-78.5 15.5v135h-42v-136q-53 -4 -97.5 -25.5t-76.5 -56t-50 -80.5t-18 -100q0 -53 17 -98t48.5 -78.5t76.5 -54.5t100 -25v-165h42v165q42 2 78.5 15t55.5 25zM267 64
q-34 4 -62 20.5t-48 42t-31 58t-11 68.5q0 80 42.5 128t109.5 55v-372z" />
    <glyph glyph-name="sterling" unicode="&#xa3;" 
d="M482 617q-20 14 -57 28.5t-97 14.5q-27 0 -62 -13.5t-65.5 -42t-51.5 -73t-21 -106.5v-45h-59l-30 -68h87l1 -71q0 -31 -4 -62t-16 -56.5t-34 -43.5t-58 -23v-56h439v77h-335q27 10 46.5 26.5t32 40.5t18.5 57.5t6 78.5v31h126l40 69h-166l1 49q1 53 12 87t27 54t35 27.5
t36 7.5l107 -54z" />
    <glyph glyph-name="currency" unicode="&#xa4;" horiz-adv-x="503" 
d="M473 272l-85 85q20 35 20 79t-20 79l85 85l-41 41l-82 -82q-42 33 -98 33q-29 0 -54 -9t-45 -25l-83 83l-41 -41l87 -87q-20 -34 -20 -77t20 -77l-87 -87l41 -41l83 83q20 -16 45 -25t54 -9q56 0 98 33l82 -82zM351 436q0 -44 -27.5 -74.5t-71.5 -30.5t-71.5 30.5
t-27.5 74.5t27.5 74.5t71.5 30.5t71.5 -30.5t27.5 -74.5z" />
    <glyph glyph-name="yen" unicode="&#xa5;" 
d="M501 642h-90l-155 -281l-149 281h-107l180 -339h-163v-37h179v-87h-179v-38h179v-141h95v141h195v38h-195v85l1 2h194v37h-173z" />
    <glyph glyph-name="section" unicode="&#xa7;" horiz-adv-x="448" 
d="M430 216q0 27 -10.5 49.5t-26.5 40.5t-35.5 32.5t-36.5 25.5l-58 37q-15 9 -32 19t-32 22t-25 27t-10 33q0 19 9 34.5t24 26t33.5 16t38.5 5.5q43 0 82 -19.5t62 -45.5v98q-9 6 -25 13t-36.5 13t-42 10t-40.5 4q-40 0 -76 -11.5t-63.5 -33t-43.5 -52t-16 -69.5
q0 -30 11 -52.5t28.5 -40t40 -32t45.5 -29.5l77 -49q13 -9 27 -19.5t25.5 -23.5t18.5 -28.5t7 -32.5q0 -12 -3.5 -25t-11.5 -27l44 -30q21 14 36 42.5t15 71.5zM380 -40q0 30 -11.5 54t-29 42.5t-37.5 32.5t-37 25l-77 49q-13 8 -27 19t-25 24t-18.5 28.5t-7.5 32.5
q0 12 3.5 25t11.5 27l-44 30q-21 -14 -36 -42.5t-15 -71.5q0 -27 10.5 -49t27 -40.5t35.5 -33t36 -25.5l58 -37q13 -8 28.5 -18t29 -22.5t22.5 -27.5t9 -33q0 -19 -9 -34.5t-24 -26t-34 -16t-38 -5.5q-43 0 -82 19.5t-62 45.5v-98q9 -6 25 -13t36.5 -13t42 -10t40.5 -4
q40 0 76 11.5t63.5 33t43.5 52t16 69.5z" />
    <glyph glyph-name="dieresis" unicode="&#xa8;" horiz-adv-x="450" 
d="M358 621q0 21 -14.5 36.5t-34.5 15.5q-18 0 -32 -15t-16 -37q-2 -26 12 -46t36 -20q20 0 34.5 19.5t14.5 46.5zM196 621q0 21 -14.5 36.5t-34.5 15.5q-18 0 -32 -15t-16 -37q-2 -26 12 -46t36 -20q20 0 34.5 19.5t14.5 46.5z" />
    <glyph glyph-name="copyright" unicode="&#xa9;" horiz-adv-x="700" 
d="M675 321q0 67 -25.5 126t-70 103t-103.5 69.5t-126 25.5q-68 0 -127 -25.5t-103.5 -69.5t-70 -103t-25.5 -126q0 -68 25.5 -127.5t70 -103.5t103.5 -69.5t127 -25.5q67 0 126 25.5t103.5 69.5t70 103.5t25.5 127.5zM632 321q0 -59 -22.5 -110.5t-60.5 -90t-89.5 -61
t-109.5 -22.5q-59 0 -110.5 22.5t-90 61t-61 90t-22.5 110.5q0 58 22.5 109.5t61 90t90 61t110.5 22.5q58 0 109.5 -22.5t89.5 -61t60.5 -90t22.5 -109.5zM467 191v55q-17 -13 -44.5 -24t-57.5 -11q-25 0 -46 9t-36 25t-23 37t-8 45q0 53 31.5 83t81.5 30q15 0 30 -3.5
t28.5 -9t25 -11.5t18.5 -11v55q-14 8 -42 16.5t-59 8.5q-38 0 -70.5 -11.5t-55.5 -33t-36 -51.5t-13 -66q0 -34 12 -62.5t35 -49.5t55 -32.5t73 -11.5q31 0 59 8t42 16z" />
    <glyph glyph-name="ordfeminine" unicode="&#xaa;" horiz-adv-x="414" 
d="M383 343q-12 1 -20 1t-15 1q-18 2 -25.5 8t-6.5 27l4 193q1 37 -22 57t-73 20q-30 0 -56 -7.5t-47.5 -19t-39 -26t-29.5 -28.5l46 -41l53 45q8 7 20 15t26 8q28 0 37 -15t9 -38v-44l-108 -29q-37 -10 -64 -33.5t-27 -64.5q0 -36 27 -59.5t65 -23.5t63.5 15t43.5 30
q4 -17 13 -26t19 -13.5t20 -5t16 -0.5q8 0 25 3t31 8zM244 361q-14 -6 -37 -11t-41 -5q-21 0 -35.5 12t-14.5 29q0 12 5.5 19.5t13.5 12.5t18.5 8t19.5 6l71 20v-91z" />
    <glyph glyph-name="guillemotleft" unicode="&#xab;" horiz-adv-x="431" 
d="M395 89l-93 159l93 143l-61 7l-128 -150l128 -170zM225 89l-93 159l93 143l-61 7l-128 -150l128 -170z" />
    <glyph glyph-name="logicalnot" unicode="&#xac;" horiz-adv-x="560" 
d="M510 96l-1 225v2l-142 -3h-328l-14 -69l124 7h229l58 -4l2 -75l-3 -72z" />
    <glyph glyph-name="registered" unicode="&#xae;" horiz-adv-x="700" 
d="M674 321q0 67 -25.5 126.5t-70 103t-104 69t-126.5 25.5t-126 -25.5t-103.5 -69t-70 -103t-25.5 -126.5q0 -68 25.5 -127t70 -103t103.5 -69.5t126 -25.5t126.5 25.5t104 69.5t70 103t25.5 127zM631 321q0 -59 -22.5 -110.5t-61 -90t-90 -61t-109.5 -22.5
q-59 0 -110.5 22.5t-90 61t-61 90t-22.5 110.5q0 58 22.5 109.5t61 90t90 61t110.5 22.5q58 0 109.5 -22.5t90 -61t61 -90t22.5 -109.5zM524 173l-127 144q10 3 22 10t22.5 17.5t17.5 25t7 32.5q0 21 -9.5 37t-26 27.5t-38.5 17t-47 5.5q-16 0 -32.5 -1.5t-31 -4t-25.5 -5
t-16 -3.5v-296h55v121q7 -1 15.5 -1.5t12.5 -0.5h14t11 1l98 -120zM406 398q0 -28 -17 -45t-30 -25l-64 5v119h20q18 0 34.5 -2t29 -8t20 -16.5t7.5 -27.5z" />
    <glyph glyph-name="macron" unicode="&#xaf;" horiz-adv-x="450" 
d="M357 614v62h-266v-62h266z" />
    <glyph glyph-name="macron" unicode="&#x2c9;" horiz-adv-x="450" 
d="M357 614v62h-266v-62h266z" />
    <glyph glyph-name="degree" unicode="&#xb0;" horiz-adv-x="300" 
d="M275 528q0 26 -10 48.5t-26.5 39.5t-39.5 26.5t-48 9.5q-26 0 -48.5 -9.5t-39 -26.5t-26.5 -39.5t-10 -48.5t10 -48.5t26.5 -39.5t39 -27t48.5 -10q25 0 48 10t39.5 27t26.5 39.5t10 48.5zM235 528q0 -36 -23.5 -59.5t-60.5 -23.5q-17 0 -32.5 6.5t-27 17.5t-18 26
t-6.5 33q0 34 23.5 59t60.5 25q35 0 59.5 -24.5t24.5 -59.5z" />
    <glyph glyph-name="plusminus" unicode="&#xb1;" horiz-adv-x="560" 
d="M529 229v74l-142 -3h-76v118l7 85l-69 -24v-179h-210l-14 -69l124 7h100v-60l-7 -152l69 14v198h87zM527 -128v72l-161 -3l-319 3l-14 -72l124 7h249z" />
    <glyph glyph-name="acute" unicode="&#xb4;" horiz-adv-x="450" 
d="M317 708l-66 46l-134 -216l42 -30z" />
    <glyph glyph-name="mu" unicode="&#xb5;" horiz-adv-x="521" 
d="M531 52q-45 4 -63.5 13.5t-18.5 41.5v365l-85 -24v-355q-19 -19 -41 -31t-59 -12q-35 0 -53.5 13t-27.5 34t-10.5 48t-1.5 54v273l-87 -25v-661h85v244q14 -23 40.5 -33.5t47.5 -10.5q29 0 59 12.5t50 47.5q9 -26 28 -43t54 -17q10 0 30 4.5t37 9.5z" />
    <glyph glyph-name="mu" unicode="&#x3bc;" horiz-adv-x="521" 
d="M531 52q-45 4 -63.5 13.5t-18.5 41.5v365l-85 -24v-355q-19 -19 -41 -31t-59 -12q-35 0 -53.5 13t-27.5 34t-10.5 48t-1.5 54v273l-87 -25v-661h85v244q14 -23 40.5 -33.5t47.5 -10.5q29 0 59 12.5t50 47.5q9 -26 28 -43t54 -17q10 0 30 4.5t37 9.5z" />
    <glyph glyph-name="paragraph" unicode="&#xb6;" horiz-adv-x="576" 
d="M290 240v404h-68q-42 0 -79 -16t-64 -43t-43 -64t-16 -79t16 -78.5t43 -64t64 -43.5t79 -16h68zM556 644h-197v-650q0 -39 -8.5 -66.5t-22.5 -45t-31 -25.5t-33 -8h-17l-97 43l-41 -70q24 -12 60.5 -20.5t74.5 -8.5q49 0 87 17t63.5 48t38.5 74t13 94v558h90z" />
    <glyph glyph-name="cedilla" unicode="&#xb8;" horiz-adv-x="450" 
d="M298 -145q0 24 -9.5 40t-25 25.5t-35 14.5t-38.5 6l39 69h-33l-52 -100q12 -2 28.5 -4t32 -7t26 -14t10.5 -24q0 -16 -7 -25t-17.5 -14t-23 -6.5t-24.5 -1.5q-24 0 -37 2.5t-29 6.5l-36 -65q7 -2 19 -3t26 -2.5t28.5 -2t27.5 -0.5q60 0 95 28.5t35 76.5z" />
    <glyph glyph-name="ordmasculine" unicode="&#xba;" horiz-adv-x="417" 
d="M395 483q0 75 -44 120t-119 45q-45 0 -83 -13.5t-65 -39.5t-42.5 -63t-15.5 -85q0 -37 11.5 -67.5t33 -52.5t52 -34t68.5 -12q95 0 149.5 54t54.5 148zM313 461q0 -58 -29 -92.5t-71 -34.5q-104 0 -104 138q0 56 29 89.5t71 33.5q55 0 79.5 -33.5t24.5 -100.5z" />
    <glyph glyph-name="guillemotright" unicode="&#xbb;" horiz-adv-x="431" 
d="M395 248l-128 150l-61 -7l93 -143l-93 -159l61 -11zM225 248l-128 150l-61 -7l93 -143l-93 -159l61 -11z" />
    <glyph glyph-name="questiondown" unicode="&#xbf;" horiz-adv-x="371" 
d="M346 66q-1 0 -20.5 3.5t-42.5 7.5t-42 7l-19 3q-49 8 -71 31t-22 50q0 23 12.5 46t34.5 46l99 109q18 20 22 32t4 25q0 37 -30 53.5t-78 27.5l-41 -53q61 -18 61 -47q0 -14 -7.5 -23t-18.5 -20l-90 -90q-29 -29 -42.5 -59.5t-13.5 -68.5q0 -54 32.5 -83t98.5 -43l122 -25
zM309 621q0 25 -16.5 42.5t-40.5 17.5t-41 -17.5t-17 -43.5q0 -23 16.5 -40t39.5 -17q25 0 42 17t17 41z" />
    <glyph glyph-name="Agrave" unicode="&#xc0;" horiz-adv-x="524" 
d="M524 0l-233 643h-103l22 -54l-222 -589h90l54 151h233l55 -151h104zM339 224h-182l91 254zM285 728l-180 147l-46 -65l196 -123z" />
    <glyph glyph-name="Aacute" unicode="&#xc1;" horiz-adv-x="524" 
d="M524 0l-233 643h-103l22 -54l-222 -589h90l54 151h233l55 -151h104zM339 224h-182l91 254zM397 810l-46 66l-180 -147l30 -42z" />
    <glyph glyph-name="Acircumflex" unicode="&#xc2;" horiz-adv-x="524" 
d="M524 0l-233 643h-103l22 -54l-222 -589h90l54 151h233l55 -151h104zM339 224h-182l91 254zM399 720l-156 144l-156 -144l34 -34l122 96l122 -96z" />
    <glyph glyph-name="Atilde" unicode="&#xc3;" horiz-adv-x="524" 
d="M524 0l-233 643h-103l22 -54l-222 -589h90l54 151h233l55 -151h104zM339 224h-182l91 254zM429 814l-36 34q-6 -9 -14.5 -22t-19 -25t-22 -20t-22.5 -8q-12 0 -27.5 8.5t-31.5 19t-31 19t-27 8.5h-28l-84 -111l38 -28q5 7 13.5 19.5t18.5 24t21 20t22 8.5q10 0 24.5 -9
t30.5 -19.5t32 -19.5t30 -9h28z" />
    <glyph glyph-name="Adieresis" unicode="&#xc4;" horiz-adv-x="524" 
d="M524 0l-233 643h-103l22 -54l-222 -589h90l54 151h233l55 -151h104zM339 224h-182l91 254zM373 751q0 21 -14.5 36.5t-34.5 15.5q-18 0 -32 -15t-16 -37q-2 -26 12 -46t36 -20q20 0 34.5 19.5t14.5 46.5zM211 751q0 21 -14.5 36.5t-34.5 15.5q-18 0 -32 -15t-16 -37
q-2 -26 12 -46t36 -20q20 0 34.5 19.5t14.5 46.5z" />
    <glyph glyph-name="Aring" unicode="&#xc5;" horiz-adv-x="524" 
d="M524 0l-233 643h-103l22 -54l-222 -589h90l54 151h233l55 -151h104zM336 765q0 38 -27.5 64t-65.5 26q-18 0 -35 -7t-29.5 -19t-20 -28.5t-7.5 -35.5t7.5 -35.5t20 -28.5t29.5 -19t35 -7q38 0 65.5 26t27.5 64zM339 224h-182l91 254zM301 767q0 -22 -15.5 -42t-42.5 -20
q-24 0 -40.5 20t-16.5 42q0 23 17 40t40 17q22 0 40 -17t18 -40z" />
    <glyph glyph-name="AE" unicode="&#xc6;" horiz-adv-x="729" 
d="M689 77h-271v212h171l29 73h-200v206h223l30 74h-348l-353 -642h90l91 175h172v-175h326zM323 245h-136l136 259v-259z" />
    <glyph glyph-name="Ccedilla" unicode="&#xc7;" horiz-adv-x="610" 
d="M555 40v98q-35 -28 -85.5 -47t-110.5 -19q-49 0 -90.5 19.5t-72 53.5t-47.5 80t-17 99q0 58 17 104t47.5 78t72 49t90.5 17q29 0 58 -6t55 -16t47.5 -21.5t35.5 -22.5v96q-14 8 -34.5 17t-45.5 16.5t-54 12.5t-59 5q-74 0 -135 -25t-105 -70t-68 -107t-24 -135
q0 -69 21.5 -128t62.5 -102.5t99 -69t132 -28.5l-41 -78q12 -2 28.5 -4t32 -7t26 -14t10.5 -24q0 -16 -7 -25t-17.5 -14t-23 -6.5t-24.5 -1.5q-24 0 -37 2.5t-29 6.5l-36 -65q7 -2 19 -3t26 -2.5t28.5 -2t27.5 -0.5q60 0 95 28.5t35 76.5q0 24 -9.5 40t-25 25.5t-35 14.5
t-38.5 6l27 47q56 3 104 19t74 33z" />
    <glyph glyph-name="Egrave" unicode="&#xc8;" horiz-adv-x="496" 
d="M456 77h-271v212h181l29 73h-210v206h223l30 74h-348v-642h326zM360 730l-180 147l-46 -66l196 -123z" />
    <glyph glyph-name="Eacute" unicode="&#xc9;" horiz-adv-x="496" 
d="M456 77h-271v212h181l29 73h-210v206h223l30 74h-348v-642h326zM397 806l-46 66l-180 -147l30 -42z" />
    <glyph glyph-name="Ecircumflex" unicode="&#xca;" horiz-adv-x="496" 
d="M456 77h-271v212h181l29 73h-210v206h223l30 74h-348v-642h326zM417 718l-156 144l-156 -144l34 -34l122 96l122 -96z" />
    <glyph glyph-name="Edieresis" unicode="&#xcb;" horiz-adv-x="496" 
d="M456 77h-271v212h181l29 73h-210v206h223l30 74h-348v-642h326zM223 753q0 21 -14.5 36.5t-34.5 15.5q-18 0 -32 -15t-16 -37q-2 -26 12 -46t36 -20q20 0 34.5 19.5t14.5 46.5zM385 753q0 21 -14.5 36.5t-34.5 15.5q-18 0 -32 -15t-16 -37q-2 -26 12 -46t36 -20
q20 0 34.5 19.5t14.5 46.5z" />
    <glyph glyph-name="Igrave" unicode="&#xcc;" horiz-adv-x="275" 
d="M187 0v642h-95v-642h95zM196 748l-180 147l-46 -66l196 -123z" />
    <glyph glyph-name="Iacute" unicode="&#xcd;" horiz-adv-x="275" 
d="M185 0v642h-95v-642h95zM309 810l-46 66l-180 -147l30 -42z" />
    <glyph glyph-name="Icircumflex" unicode="&#xce;" horiz-adv-x="275" 
d="M185 0v642h-95v-642h95zM295 718l-156 144l-156 -144l34 -34l122 96l122 -96z" />
    <glyph glyph-name="Idieresis" unicode="&#xcf;" horiz-adv-x="275" 
d="M185 0v642h-95v-642h95zM106 771q0 21 -14.5 36.5t-34.5 15.5q-18 0 -32 -15t-16 -37q-2 -26 12 -46t36 -20q20 0 34.5 19.5t14.5 46.5zM268 771q0 21 -14.5 36.5t-34.5 15.5q-18 0 -32 -15t-16 -37q-2 -26 12 -46t36 -20q20 0 34.5 19.5t14.5 46.5z" />
    <glyph glyph-name="Ntilde" unicode="&#xd1;" horiz-adv-x="680" 
d="M590 0v642h-81v-443l-354 443h-120l64 -80v-562h80v461l367 -461h44zM517 809l-35 34q-6 -9 -15 -22t-19 -25t-21.5 -20t-22.5 -8q-12 0 -27.5 8.5t-31.5 19t-31 19t-27 8.5h-28l-84 -111l38 -28q5 7 13.5 19.5t18.5 24t21 20t22 8.5q10 0 24.5 -9t30.5 -19.5t32 -19.5
t30 -9h28z" />
    <glyph glyph-name="Ograve" unicode="&#xd2;" horiz-adv-x="692" 
d="M662 320q0 73 -23.5 134t-65.5 105.5t-100 69t-127 24.5t-127 -24.5t-100 -69t-65.5 -105.5t-23.5 -134q0 -74 23.5 -135t65.5 -105t100 -68.5t127 -24.5t127 24.5t100 69t65.5 105.5t23.5 134zM560 320q0 -56 -14.5 -102.5t-41.5 -80t-67 -52.5t-91 -19t-91 19
t-67.5 52.5t-41.5 80t-14 102.5q0 55 14.5 102t41.5 80.5t67 52.5t91 19t91 -19t67 -52.5t41.5 -80.5t14.5 -102zM377 728l-180 147l-46 -66l196 -123z" />
    <glyph glyph-name="Oacute" unicode="&#xd3;" horiz-adv-x="692" 
d="M662 320q0 73 -23.5 134t-65.5 105.5t-100 69t-127 24.5t-127 -24.5t-100 -69t-65.5 -105.5t-23.5 -134q0 -74 23.5 -135t65.5 -105t100 -68.5t127 -24.5t127 24.5t100 69t65.5 105.5t23.5 134zM560 320q0 -56 -14.5 -102.5t-41.5 -80t-67 -52.5t-91 -19t-91 19
t-67.5 52.5t-41.5 80t-14 102.5q0 55 14.5 102t41.5 80.5t67 52.5t91 19t91 -19t67 -52.5t41.5 -80.5t14.5 -102zM545 808l-46 66l-180 -147l30 -42z" />
    <glyph glyph-name="Ocircumflex" unicode="&#xd4;" horiz-adv-x="692" 
d="M662 320q0 73 -23.5 134t-65.5 105.5t-100 69t-127 24.5t-127 -24.5t-100 -69t-65.5 -105.5t-23.5 -134q0 -74 23.5 -135t65.5 -105t100 -68.5t127 -24.5t127 24.5t100 69t65.5 105.5t23.5 134zM560 320q0 -56 -14.5 -102.5t-41.5 -80t-67 -52.5t-91 -19t-91 19
t-67.5 52.5t-41.5 80t-14 102.5q0 55 14.5 102t41.5 80.5t67 52.5t91 19t91 -19t67 -52.5t41.5 -80.5t14.5 -102zM501 718l-156 144l-156 -144l34 -34l122 96l122 -96z" />
    <glyph glyph-name="Otilde" unicode="&#xd5;" horiz-adv-x="692" 
d="M662 320q0 73 -23.5 134t-65.5 105.5t-100 69t-127 24.5t-127 -24.5t-100 -69t-65.5 -105.5t-23.5 -134q0 -74 23.5 -135t65.5 -105t100 -68.5t127 -24.5t127 24.5t100 69t65.5 105.5t23.5 134zM560 320q0 -56 -14.5 -102.5t-41.5 -80t-67 -52.5t-91 -19t-91 19
t-67.5 52.5t-41.5 80t-14 102.5q0 55 14.5 102t41.5 80.5t67 52.5t91 19t91 -19t67 -52.5t41.5 -80.5t14.5 -102zM512 807l-35 34q-6 -9 -15 -22t-19.5 -24.5t-21.5 -20t-22 -8.5q-13 0 -28.5 8.5t-31 19t-30.5 19t-27 8.5h-28l-84 -111l37 -27q6 7 14.5 19t18.5 23.5t21 20
t22 8.5q10 0 24 -9t30 -19.5t32.5 -19.5t30.5 -9h28z" />
    <glyph glyph-name="Odieresis" unicode="&#xd6;" horiz-adv-x="692" 
d="M662 320q0 73 -23.5 134t-65.5 105.5t-100 69t-127 24.5t-127 -24.5t-100 -69t-65.5 -105.5t-23.5 -134q0 -74 23.5 -135t65.5 -105t100 -68.5t127 -24.5t127 24.5t100 69t65.5 105.5t23.5 134zM560 320q0 -56 -14.5 -102.5t-41.5 -80t-67 -52.5t-91 -19t-91 19
t-67.5 52.5t-41.5 80t-14 102.5q0 55 14.5 102t41.5 80.5t67 52.5t91 19t91 -19t67 -52.5t41.5 -80.5t14.5 -102zM474 751q0 21 -14.5 36.5t-34.5 15.5q-18 0 -32 -15t-16 -37q-2 -26 12 -46t36 -20q20 0 34.5 19.5t14.5 46.5zM312 751q0 21 -14.5 36.5t-34.5 15.5
q-18 0 -32 -15t-16 -37q-2 -26 12 -46t36 -20q20 0 34.5 19.5t14.5 46.5z" />
    <glyph glyph-name="Oslash" unicode="&#xd8;" horiz-adv-x="692" 
d="M662 320q0 62 -17 115.5t-48 95.5t-75 71t-97 42l12 70l-40 17l-13 -80q-10 1 -19 1.5t-19 0.5q-69 0 -127 -24.5t-100 -69t-65.5 -105.5t-23.5 -134q0 -64 17.5 -118.5t49.5 -96.5t77 -70.5t100 -40.5l-15 -86l40 -14l16 94q8 -1 15 -1h16q69 0 127 24.5t100 69
t65.5 105.5t23.5 134zM370 573l-83 -500q-38 10 -66.5 32.5t-48.5 54.5t-30 72.5t-10 87.5q0 55 14.5 102t41.5 80.5t67 52.5t91 19h12q7 0 12 -1zM560 320q0 -56 -14.5 -102.5t-41.5 -80t-67 -52.5t-91 -19h-9t-9 1l84 498q72 -22 110 -87.5t38 -157.5z" />
    <glyph glyph-name="Ugrave" unicode="&#xd9;" horiz-adv-x="652" 
d="M572 223v417h-80v-410q0 -35 -11 -65.5t-32 -53t-51 -35.5t-67 -13q-38 0 -66.5 13.5t-48 38.5t-29 58.5t-9.5 74.5v392h-95v-398q0 -125 66.5 -190.5t181.5 -65.5q54 0 98.5 18.5t76 51t49 75.5t17.5 92zM368 728l-180 147l-46 -66l196 -123z" />
    <glyph glyph-name="Uacute" unicode="&#xda;" horiz-adv-x="652" 
d="M572 223v417h-80v-410q0 -35 -11 -65.5t-32 -53t-51 -35.5t-67 -13q-38 0 -66.5 13.5t-48 38.5t-29 58.5t-9.5 74.5v392h-95v-398q0 -125 66.5 -190.5t181.5 -65.5q54 0 98.5 18.5t76 51t49 75.5t17.5 92zM525 808l-46 66l-180 -147l30 -42z" />
    <glyph glyph-name="Ucircumflex" unicode="&#xdb;" horiz-adv-x="652" 
d="M572 223v417h-80v-410q0 -35 -11 -65.5t-32 -53t-51 -35.5t-67 -13q-38 0 -66.5 13.5t-48 38.5t-29 58.5t-9.5 74.5v392h-95v-398q0 -125 66.5 -190.5t181.5 -65.5q54 0 98.5 18.5t76 51t49 75.5t17.5 92zM483 720l-156 144l-156 -144l34 -34l122 96l122 -96z" />
    <glyph glyph-name="Udieresis" unicode="&#xdc;" horiz-adv-x="652" 
d="M572 223v417h-80v-410q0 -35 -11 -65.5t-32 -53t-51 -35.5t-67 -13q-38 0 -66.5 13.5t-48 38.5t-29 58.5t-9.5 74.5v392h-95v-398q0 -125 66.5 -190.5t181.5 -65.5q54 0 98.5 18.5t76 51t49 75.5t17.5 92zM300 751q0 21 -14.5 36.5t-34.5 15.5q-18 0 -32 -15t-16 -37
q-2 -26 12 -46t36 -20q20 0 34.5 19.5t14.5 46.5zM462 751q0 21 -14.5 36.5t-34.5 15.5q-18 0 -32 -15t-16 -37q-2 -26 12 -46t36 -20q20 0 34.5 19.5t14.5 46.5z" />
    <glyph glyph-name="germandbls" unicode="&#xdf;" horiz-adv-x="560" 
d="M540 121q0 28 -8.5 50t-23 39t-32.5 31t-37 26l-40 26q-26 17 -38 33t-12 43q0 22 16.5 41t38.5 37q13 12 27 24t25 27t18 33t7 42q0 34 -14 60.5t-38.5 45.5t-59 29t-75.5 10q-51 0 -90.5 -17t-66.5 -48t-41 -74t-14 -94v-485h86v507q0 75 34.5 113t91.5 38
q31 0 51.5 -8.5t32.5 -21.5t17 -29t5 -32q0 -29 -14.5 -49.5t-36.5 -38.5q-14 -12 -28.5 -24.5t-26.5 -27t-20 -31.5t-8 -37q0 -24 6 -43t17.5 -34.5t27 -28.5t35.5 -26l35 -23q10 -7 22.5 -15t23.5 -18.5t18 -24t7 -30.5q0 -31 -20 -48.5t-55 -17.5q-31 0 -56 13t-48 27
l-32 -66q37 -22 71.5 -30t67.5 -8q30 0 57.5 8.5t49 25t34.5 42t13 59.5z" />
    <glyph glyph-name="agrave" unicode="&#xe0;" horiz-adv-x="480" 
d="M450 52q-21 3 -34.5 4t-22 5.5t-11.5 14.5t-3 31l4 264q1 48 -28.5 74.5t-85.5 26.5q-36 0 -69 -10t-60.5 -25.5t-49 -34.5t-36.5 -37l52 -51l64 60q10 10 29 21t37 11q36 0 48 -22t12 -54v-64l-143 -40q-23 -6 -43 -17t-35 -27t-24 -38t-9 -50q0 -23 8.5 -43t23.5 -34.5
t35.5 -22.5t44.5 -8q48 0 83.5 17t57.5 38q5 -20 16 -31t23 -16.5t24 -6.5t19 -1q10 0 26 3.5t31 10.5zM296 84q-17 -11 -47.5 -21.5t-64.5 -10.5q-31 0 -44 18.5t-13 43.5q0 17 6.5 28.5t16.5 19t22.5 12.5t24.5 8l99 29v-127zM311 538l-134 216l-66 -46l158 -200z" />
    <glyph glyph-name="aacute" unicode="&#xe1;" horiz-adv-x="480" 
d="M450 52q-21 3 -34.5 4t-22 5.5t-11.5 14.5t-3 31l4 264q1 48 -28.5 74.5t-85.5 26.5q-36 0 -69 -10t-60.5 -25.5t-49 -34.5t-36.5 -37l52 -51l64 60q10 10 29 21t37 11q36 0 48 -22t12 -54v-64l-143 -40q-23 -6 -43 -17t-35 -27t-24 -38t-9 -50q0 -23 8.5 -43t23.5 -34.5
t35.5 -22.5t44.5 -8q48 0 83.5 17t57.5 38q5 -20 16 -31t23 -16.5t24 -6.5t19 -1q10 0 26 3.5t31 10.5zM296 84q-17 -11 -47.5 -21.5t-64.5 -10.5q-31 0 -44 18.5t-13 43.5q0 17 6.5 28.5t16.5 19t22.5 12.5t24.5 8l99 29v-127zM407 708l-66 46l-134 -216l42 -30z" />
    <glyph glyph-name="acircumflex" unicode="&#xe2;" horiz-adv-x="480" 
d="M450 52q-21 3 -34.5 4t-22 5.5t-11.5 14.5t-3 31l4 264q1 48 -28.5 74.5t-85.5 26.5q-36 0 -69 -10t-60.5 -25.5t-49 -34.5t-36.5 -37l52 -51l64 60q10 10 29 21t37 11q36 0 48 -22t12 -54v-64l-143 -40q-23 -6 -43 -17t-35 -27t-24 -38t-9 -50q0 -23 8.5 -43t23.5 -34.5
t35.5 -22.5t44.5 -8q48 0 83.5 17t57.5 38q5 -20 16 -31t23 -16.5t24 -6.5t19 -1q10 0 26 3.5t31 10.5zM296 84q-17 -11 -47.5 -21.5t-64.5 -10.5q-31 0 -44 18.5t-13 43.5q0 17 6.5 28.5t16.5 19t22.5 12.5t24.5 8l99 29v-127zM409 542l-156 144l-156 -144l34 -34l122 96
l122 -96z" />
    <glyph glyph-name="atilde" unicode="&#xe3;" horiz-adv-x="480" 
d="M450 52q-21 3 -34.5 4t-22 5.5t-11.5 14.5t-3 31l4 264q1 48 -28.5 74.5t-85.5 26.5q-36 0 -69 -10t-60.5 -25.5t-49 -34.5t-36.5 -37l52 -51l64 60q10 10 29 21t37 11q36 0 48 -22t12 -54v-64l-143 -40q-23 -6 -43 -17t-35 -27t-24 -38t-9 -50q0 -23 8.5 -43t23.5 -34.5
t35.5 -22.5t44.5 -8q48 0 83.5 17t57.5 38q5 -20 16 -31t23 -16.5t24 -6.5t19 -1q10 0 26 3.5t31 10.5zM415 659l-35 34q-6 -9 -15 -22t-19 -25t-21.5 -20t-22.5 -8q-12 0 -27.5 8.5t-31.5 19t-31 19t-27 8.5h-28l-84 -111l38 -28q5 7 13.5 19.5t18.5 24t21 20t22 8.5
q10 0 24.5 -9t30.5 -19.5t32 -19.5t30 -9h28zM296 84q-17 -11 -47.5 -21.5t-64.5 -10.5q-31 0 -44 18.5t-13 43.5q0 17 6.5 28.5t16.5 19t22.5 12.5t24.5 8l99 29v-127z" />
    <glyph glyph-name="adieresis" unicode="&#xe4;" horiz-adv-x="480" 
d="M450 52q-21 3 -34.5 4t-22 5.5t-11.5 14.5t-3 31l4 264q1 48 -28.5 74.5t-85.5 26.5q-36 0 -69 -10t-60.5 -25.5t-49 -34.5t-36.5 -37l52 -51l64 60q10 10 29 21t37 11q36 0 48 -22t12 -54v-64l-143 -40q-23 -6 -43 -17t-35 -27t-24 -38t-9 -50q0 -23 8.5 -43t23.5 -34.5
t35.5 -22.5t44.5 -8q48 0 83.5 17t57.5 38q5 -20 16 -31t23 -16.5t24 -6.5t19 -1q10 0 26 3.5t31 10.5zM296 84q-17 -11 -47.5 -21.5t-64.5 -10.5q-31 0 -44 18.5t-13 43.5q0 17 6.5 28.5t16.5 19t22.5 12.5t24.5 8l99 29v-127zM374 601q0 21 -14.5 36.5t-34.5 15.5
q-18 0 -32 -15t-16 -37q-2 -26 12 -46t36 -20q20 0 34.5 19.5t14.5 46.5zM212 601q0 21 -14.5 36.5t-34.5 15.5q-18 0 -32 -15t-16 -37q-2 -26 12 -46t36 -20q20 0 34.5 19.5t14.5 46.5z" />
    <glyph glyph-name="aring" unicode="&#xe5;" horiz-adv-x="480" 
d="M450 52q-21 3 -34.5 4t-22 5.5t-11.5 14.5t-3 31l4 264q1 48 -28.5 74.5t-85.5 26.5q-36 0 -69 -10t-60.5 -25.5t-49 -34.5t-36.5 -37l52 -51l64 60q10 10 29 21t37 11q36 0 48 -22t12 -54v-64l-143 -40q-23 -6 -43 -17t-35 -27t-24 -38t-9 -50q0 -23 8.5 -43t23.5 -34.5
t35.5 -22.5t44.5 -8q48 0 83.5 17t57.5 38q5 -20 16 -31t23 -16.5t24 -6.5t19 -1q10 0 26 3.5t31 10.5zM336 595q0 38 -27.5 64t-65.5 26q-18 0 -35 -7t-29.5 -19t-20 -28.5t-7.5 -35.5t7.5 -35.5t20 -28.5t29.5 -19t35 -7q38 0 65.5 26t27.5 64zM296 84
q-17 -11 -47.5 -21.5t-64.5 -10.5q-31 0 -44 18.5t-13 43.5q0 17 6.5 28.5t16.5 19t22.5 12.5t24.5 8l99 29v-127zM301 597q0 -22 -15.5 -42t-42.5 -20q-24 0 -40.5 20t-16.5 42q0 23 17 40t40 17q22 0 40 -17t18 -40z" />
    <glyph glyph-name="ae" unicode="&#xe6;" horiz-adv-x="708" 
d="M668 312q0 82 -42 121t-123 39q-40 0 -75.5 -14t-59.5 -49q-8 29 -31.5 46t-66.5 17q-36 0 -69 -10t-60.5 -25.5t-49 -34.5t-36.5 -37l52 -51l64 60q10 10 29 21t37 11t28 -6t15 -16t6 -24t1 -30v-64l-133 -40q-45 -14 -77.5 -45.5t-32.5 -85.5q0 -48 33.5 -78.5
t87.5 -30.5q30 0 54.5 7.5t44 19.5t35.5 26.5t30 28.5q13 -15 27.5 -29.5t33 -26.5t44.5 -19t62 -7q38 0 73 7t58 18l22 81q-32 -15 -64 -21t-68 -6q-33 0 -59.5 13t-45.5 33.5t-29 46.5t-10 52q0 7 -0.5 11.5t1.5 10.5l285 11q4 12 6.5 33.5t2.5 35.5zM311 95
q-17 -11 -46 -25.5t-64 -14.5q-36 0 -56 15.5t-20 44.5q0 17 7 28.5t17.5 18.5t23.5 11.5t25 8.5l87 26q2 -19 4.5 -36.5t7.5 -34.5zM581 336q0 -7 -1 -17t-6 -21l-196 -9q2 21 11 43.5t24.5 41t37.5 30t50 11.5q39 0 59.5 -21.5t20.5 -57.5z" />
    <glyph glyph-name="ccedilla" unicode="&#xe7;" horiz-adv-x="431" 
d="M419 381q-22 50 -65.5 70t-89.5 20q-45 0 -85 -17.5t-70.5 -50t-48.5 -78.5t-18 -104q0 -101 48.5 -163.5t136.5 -70.5l-40 -77q12 -2 28.5 -4t32 -7t26 -14t10.5 -24q0 -16 -7 -25t-17.5 -14t-23 -6.5t-24.5 -1.5q-24 0 -37 2.5t-29 6.5l-36 -65q7 -2 19 -3t26 -2.5
t28.5 -2t27.5 -0.5q60 0 95 28.5t35 76.5q0 24 -9.5 40t-25 25.5t-35 14.5t-38.5 6l26 45q31 1 65.5 9.5t58.5 26.5l17 74q-25 -14 -55.5 -24.5t-68.5 -10.5t-65 13t-44 36t-25 55t-8 71q0 42 11.5 74.5t30 54t41 33t44.5 11.5h18l74 -72z" />
    <glyph glyph-name="egrave" unicode="&#xe8;" horiz-adv-x="476" 
d="M433 312q0 82 -46 120.5t-124 38.5q-51 0 -91 -19.5t-68.5 -53t-43.5 -78.5t-15 -96q0 -50 13.5 -93t40.5 -75.5t66.5 -51t90.5 -18.5q38 0 75.5 7t60.5 18l22 81q-31 -16 -66 -23.5t-71 -7.5t-63 12t-45 32.5t-27 47.5t-9 57v22l293 11q3 14 5 34.5t2 34.5zM344 336
q0 -7 -1 -17t-4 -21l-202 -9q2 21 11 43.5t24.5 40.5t38 29.5t50.5 11.5q38 0 60.5 -21t22.5 -57zM294 538l-134 216l-66 -46l158 -200z" />
    <glyph glyph-name="eacute" unicode="&#xe9;" horiz-adv-x="476" 
d="M433 312q0 82 -46 120.5t-124 38.5q-51 0 -91 -19.5t-68.5 -53t-43.5 -78.5t-15 -96q0 -50 13.5 -93t40.5 -75.5t66.5 -51t90.5 -18.5q38 0 75.5 7t60.5 18l22 81q-31 -16 -66 -23.5t-71 -7.5t-63 12t-45 32.5t-27 47.5t-9 57v22l293 11q3 14 5 34.5t2 34.5zM344 336
q0 -7 -1 -17t-4 -21l-202 -9q2 21 11 43.5t24.5 40.5t38 29.5t50.5 11.5q38 0 60.5 -21t22.5 -57zM400 708l-66 46l-134 -216l42 -30z" />
    <glyph glyph-name="ecircumflex" unicode="&#xea;" horiz-adv-x="476" 
d="M433 312q0 82 -46 120.5t-124 38.5q-51 0 -91 -19.5t-68.5 -53t-43.5 -78.5t-15 -96q0 -50 13.5 -93t40.5 -75.5t66.5 -51t90.5 -18.5q38 0 75.5 7t60.5 18l22 81q-31 -16 -66 -23.5t-71 -7.5t-63 12t-45 32.5t-27 47.5t-9 57v22l293 11q3 14 5 34.5t2 34.5zM422 542
l-156 144l-156 -144l34 -34l122 96l122 -96zM344 336q0 -7 -1 -17t-4 -21l-202 -9q2 21 11 43.5t24.5 40.5t38 29.5t50.5 11.5q38 0 60.5 -21t22.5 -57z" />
    <glyph glyph-name="edieresis" unicode="&#xeb;" horiz-adv-x="476" 
d="M433 312q0 82 -46 120.5t-124 38.5q-51 0 -91 -19.5t-68.5 -53t-43.5 -78.5t-15 -96q0 -50 13.5 -93t40.5 -75.5t66.5 -51t90.5 -18.5q38 0 75.5 7t60.5 18l22 81q-31 -16 -66 -23.5t-71 -7.5t-63 12t-45 32.5t-27 47.5t-9 57v22l293 11q3 14 5 34.5t2 34.5zM344 336
q0 -7 -1 -17t-4 -21l-202 -9q2 21 11 43.5t24.5 40.5t38 29.5t50.5 11.5q38 0 60.5 -21t22.5 -57zM381 601q0 21 -14.5 36.5t-34.5 15.5q-18 0 -32 -15t-16 -37q-2 -26 12 -46t36 -20q20 0 34.5 19.5t14.5 46.5zM219 601q0 21 -14.5 36.5t-34.5 15.5q-18 0 -32 -15t-16 -37
q-2 -26 12 -46t36 -20q20 0 34.5 19.5t14.5 46.5z" />
    <glyph glyph-name="igrave" unicode="&#xec;" horiz-adv-x="251" 
d="M169 0v472l-87 -32v-440h87zM171 538l-134 216l-66 -46l158 -200z" />
    <glyph glyph-name="iacute" unicode="&#xed;" horiz-adv-x="251" 
d="M169 0v472l-87 -32v-440h87zM287 708l-66 46l-134 -216l42 -30z" />
    <glyph glyph-name="icircumflex" unicode="&#xee;" horiz-adv-x="251" 
d="M169 0v472l-87 -32v-440h87zM279 542l-156 144l-156 -144l34 -34l122 96l122 -96z" />
    <glyph glyph-name="idieresis" unicode="&#xef;" horiz-adv-x="251" 
d="M169 0v472l-87 -32v-440h87zM96 601q0 21 -14.5 36.5t-34.5 15.5q-18 0 -32 -15t-16 -37q-2 -26 12 -46t36 -20q20 0 34.5 19.5t14.5 46.5zM258 601q0 21 -14.5 36.5t-34.5 15.5q-18 0 -32 -15t-16 -37q-2 -26 12 -46t36 -20q20 0 34.5 19.5t14.5 46.5z" />
    <glyph glyph-name="ntilde" unicode="&#xf1;" horiz-adv-x="531" 
d="M449 0v334q0 72 -35 104.5t-95 32.5q-35 0 -75 -12.5t-75 -45.5v57l-87 -23v-447h87v358q6 6 17 14.5t25 15.5t29 12t29 5q55 0 74 -28t19 -95v-282h87zM445 659l-35 34q-6 -9 -15 -22t-19 -25t-21.5 -20t-22.5 -8q-12 0 -27.5 8.5t-31.5 19t-31 19t-27 8.5h-28l-84 -111
l38 -28q5 7 13.5 19.5t18.5 24t21 20t22 8.5q10 0 24.5 -9t30.5 -19.5t32 -19.5t30 -9h28z" />
    <glyph glyph-name="ograve" unicode="&#xf2;" horiz-adv-x="517" 
d="M478 254q0 49 -14 89t-39.5 68.5t-61 44.5t-78.5 16q-112 0 -176 -67t-64 -201q0 -50 14 -90t39 -68.5t60.5 -44t77.5 -15.5q53 0 97.5 17t76.5 50.5t50 84t18 116.5zM386 220q0 -39 -10 -70.5t-27.5 -54.5t-39.5 -35.5t-46 -12.5q-68 0 -97 47.5t-29 140.5q0 40 10 72.5
t26.5 55.5t38.5 35.5t46 12.5q66 0 97 -48.5t31 -142.5zM324 538l-134 216l-66 -46l158 -200z" />
    <glyph glyph-name="oacute" unicode="&#xf3;" horiz-adv-x="517" 
d="M478 254q0 49 -14 89t-39.5 68.5t-61 44.5t-78.5 16q-112 0 -176 -67t-64 -201q0 -50 14 -90t39 -68.5t60.5 -44t77.5 -15.5q53 0 97.5 17t76.5 50.5t50 84t18 116.5zM386 220q0 -39 -10 -70.5t-27.5 -54.5t-39.5 -35.5t-46 -12.5q-68 0 -97 47.5t-29 140.5q0 40 10 72.5
t26.5 55.5t38.5 35.5t46 12.5q66 0 97 -48.5t31 -142.5zM410 708l-66 46l-134 -216l42 -30z" />
    <glyph glyph-name="ocircumflex" unicode="&#xf4;" horiz-adv-x="517" 
d="M478 254q0 49 -14 89t-39.5 68.5t-61 44.5t-78.5 16q-112 0 -176 -67t-64 -201q0 -50 14 -90t39 -68.5t60.5 -44t77.5 -15.5q53 0 97.5 17t76.5 50.5t50 84t18 116.5zM386 220q0 -39 -10 -70.5t-27.5 -54.5t-39.5 -35.5t-46 -12.5q-68 0 -97 47.5t-29 140.5q0 40 10 72.5
t26.5 55.5t38.5 35.5t46 12.5q66 0 97 -48.5t31 -142.5zM422 542l-156 144l-156 -144l34 -34l122 96l122 -96z" />
    <glyph glyph-name="otilde" unicode="&#xf5;" horiz-adv-x="517" 
d="M478 254q0 49 -14 89t-39.5 68.5t-61 44.5t-78.5 16q-112 0 -176 -67t-64 -201q0 -50 14 -90t39 -68.5t60.5 -44t77.5 -15.5q53 0 97.5 17t76.5 50.5t50 84t18 116.5zM386 220q0 -39 -10 -70.5t-27.5 -54.5t-39.5 -35.5t-46 -12.5q-68 0 -97 47.5t-29 140.5q0 40 10 72.5
t26.5 55.5t38.5 35.5t46 12.5q66 0 97 -48.5t31 -142.5zM448 659l-35 34q-6 -9 -15 -22t-19 -25t-21.5 -20t-22.5 -8q-12 0 -27.5 8.5t-31.5 19t-31 19t-27 8.5h-28l-84 -111l38 -28q5 7 13.5 19.5t18.5 24t21 20t22 8.5q10 0 24.5 -9t30.5 -19.5t32 -19.5t30 -9h28z" />
    <glyph glyph-name="odieresis" unicode="&#xf6;" horiz-adv-x="517" 
d="M478 254q0 49 -14 89t-39.5 68.5t-61 44.5t-78.5 16q-112 0 -176 -67t-64 -201q0 -50 14 -90t39 -68.5t60.5 -44t77.5 -15.5q53 0 97.5 17t76.5 50.5t50 84t18 116.5zM386 220q0 -39 -10 -70.5t-27.5 -54.5t-39.5 -35.5t-46 -12.5q-68 0 -97 47.5t-29 140.5q0 40 10 72.5
t26.5 55.5t38.5 35.5t46 12.5q66 0 97 -48.5t31 -142.5zM401 601q0 21 -14.5 36.5t-34.5 15.5q-18 0 -32 -15t-16 -37q-2 -26 12 -46t36 -20q20 0 34.5 19.5t14.5 46.5zM239 601q0 21 -14.5 36.5t-34.5 15.5q-18 0 -32 -15t-16 -37q-2 -26 12 -46t36 -20q20 0 34.5 19.5
t14.5 46.5z" />
    <glyph glyph-name="divide" unicode="&#xf7;" horiz-adv-x="560" 
d="M537 201v72l-171 -3l-319 3l-14 -72l124 7h249zM354 411q0 27 -18.5 46t-44.5 19q-29 0 -48.5 -19t-19.5 -47q0 -27 18.5 -46t44.5 -19q28 0 48 19.5t20 46.5zM354 52q0 27 -18.5 46t-44.5 19q-29 0 -48.5 -19t-19.5 -47q0 -27 18.5 -46t44.5 -19q28 0 48 19.5t20 46.5z
" />
    <glyph glyph-name="oslash" unicode="&#xf8;" horiz-adv-x="517" 
d="M479 254q0 86 -42 143t-113 71l14 73l-40 17l-16 -86q-56 0 -101 -18.5t-77 -53t-49 -84t-17 -112.5q0 -89 42 -145.5t114 -69.5l-15 -81l40 -16l17 94q53 1 97.5 19t77 52t50.5 83.5t18 113.5zM271 410l-65 -353q-76 34 -76 178q0 40 10 72.5t27 55.5t39.5 35.5
t48.5 12.5h8t8 -1zM387 220q0 -39 -10 -70.5t-27.5 -54.5t-40.5 -35.5t-49 -12.5h-12l64 352q75 -37 75 -179z" />
    <glyph glyph-name="ugrave" unicode="&#xf9;" horiz-adv-x="529" 
d="M447 10v462l-85 -24v-349q-10 -9 -23.5 -17.5t-28 -15t-28.5 -10.5t-25 -4q-27 0 -44 6.5t-27 22t-13.5 41t-3.5 63.5v287l-87 -25v-314q0 -75 34 -111t94 -36q40 0 80 16t72 42v-66zM321 538l-134 216l-66 -46l158 -200z" />
    <glyph glyph-name="uacute" unicode="&#xfa;" horiz-adv-x="529" 
d="M447 10v462l-85 -24v-349q-10 -9 -23.5 -17.5t-28 -15t-28.5 -10.5t-25 -4q-27 0 -44 6.5t-27 22t-13.5 41t-3.5 63.5v287l-87 -25v-314q0 -75 34 -111t94 -36q40 0 80 16t72 42v-66zM427 708l-66 46l-134 -216l42 -30z" />
    <glyph glyph-name="ucircumflex" unicode="&#xfb;" horiz-adv-x="529" 
d="M447 10v462l-85 -24v-349q-10 -9 -23.5 -17.5t-28 -15t-28.5 -10.5t-25 -4q-27 0 -44 6.5t-27 22t-13.5 41t-3.5 63.5v287l-87 -25v-314q0 -75 34 -111t94 -36q40 0 80 16t72 42v-66zM429 542l-156 144l-156 -144l34 -34l122 96l122 -96z" />
    <glyph glyph-name="udieresis" unicode="&#xfc;" horiz-adv-x="529" 
d="M447 10v462l-85 -24v-349q-10 -9 -23.5 -17.5t-28 -15t-28.5 -10.5t-25 -4q-27 0 -44 6.5t-27 22t-13.5 41t-3.5 63.5v287l-87 -25v-314q0 -75 34 -111t94 -36q40 0 80 16t72 42v-66zM236 601q0 21 -14.5 36.5t-34.5 15.5q-18 0 -32 -15t-16 -37q-2 -26 12 -46t36 -20
q20 0 34.5 19.5t14.5 46.5zM398 601q0 21 -14.5 36.5t-34.5 15.5q-18 0 -32 -15t-16 -37q-2 -26 12 -46t36 -20q20 0 34.5 19.5t14.5 46.5z" />
    <glyph glyph-name="ydieresis" unicode="&#xff;" horiz-adv-x="413" 
d="M413 455h-84l-112 -340l-117 340h-95l168 -470q-38 -101 -124 -101h-65l41 -97q48 1 83 20t59.5 48.5t41 64t28.5 66.5zM176 601q0 21 -14.5 36.5t-34.5 15.5q-18 0 -32 -15t-16 -37q-2 -26 12 -46t36 -20q20 0 34.5 19.5t14.5 46.5zM338 601q0 21 -14.5 36.5t-34.5 15.5
q-18 0 -32 -15t-16 -37q-2 -26 12 -46t36 -20q20 0 34.5 19.5t14.5 46.5z" />
    <glyph glyph-name="fi" unicode="&#xfb01;" horiz-adv-x="540" 
d="M457 679q-25 17 -65.5 28t-89.5 11q-99 0 -150.5 -61t-51.5 -172v-37h-57l-28 -69h85v-379h87v381h175v-381h87v472l-65 -24h-198v69q0 43 10.5 71t26 44.5t34 23t35.5 6.5h27l97 -53z" />
    <glyph glyph-name="fl" unicode="&#xfb02;" horiz-adv-x="540" 
d="M458 0v712l-33 -12q-50 18 -123 18q-49 0 -87 -17t-63.5 -48t-38.5 -74t-13 -94v-37h-57l-28 -69h85v-379h87v381h184v-381h87zM371 448h-185v59q0 39 10 67.5t26.5 47.5t37.5 28t42 9h69v-211z" />
    <glyph glyph-name="periodcentered" unicode="&#xb7;" horiz-adv-x="280" 
d="M200 280q0 27 -18.5 46t-44.5 19q-29 0 -48.5 -19.5t-19.5 -46.5t18.5 -46t44.5 -19q29 0 48.5 19t19.5 47z" />
    <glyph glyph-name="daggerdbl" unicode="&#x2021;" horiz-adv-x="497" 
d="M279 -69v175l200 -7v68l-200 -16v322l200 -7v68l-200 -16v172h-69v-171l-193 15v-68l193 6v-320l-193 15v-68l193 6v-174q0 -16 9.5 -28.5t25.5 -12.5t25 12.5t9 28.5z" />
    <glyph glyph-name="breve" unicode="&#x2d8;" horiz-adv-x="450" 
d="M385 716l-29 20l-31 -35q-15 -17 -38.5 -33t-56.5 -16q-27 0 -53.5 16t-41.5 33l-31 35l-29 -20l33 -54q17 -27 47 -50t75 -23t75 23t47 50z" />
    <glyph glyph-name="dotaccent" unicode="&#x2d9;" horiz-adv-x="450" 
d="M275 643q0 17 -12 29.5t-29 12.5t-29.5 -12.5t-12.5 -29.5t12.5 -29t29.5 -12t29 12t12 29z" />
    <glyph glyph-name="Scaron" unicode="&#x160;" horiz-adv-x="485" 
d="M431 170q0 30 -11 55t-28 44.5t-37 34.5t-38 26l-59 37q-18 12 -35.5 23t-31 23.5t-21.5 27.5t-8 35q0 24 10 42.5t27 30.5t38.5 18t45.5 6q45 0 79.5 -18.5t58.5 -44.5v101q-9 6 -24 13t-34 13t-39.5 10t-40.5 4q-48 0 -87.5 -13t-68 -37.5t-44 -59t-15.5 -76.5
q0 -47 28 -88t91 -79l59 -36q10 -6 24.5 -14.5t28.5 -21t24 -28.5t10 -37q0 -22 -9.5 -39.5t-25.5 -30t-36.5 -19.5t-42.5 -7q-52 0 -91 17.5t-73 44.5l14 -110q34 -13 73 -21.5t83 -8.5t82 13t65.5 37t43 58t15.5 75zM421 823l-34 34l-122 -96l-122 96l-34 -34l156 -144z
" />
    <glyph glyph-name="scaron" unicode="&#x161;" horiz-adv-x="410" 
d="M362 120q0 30 -8 51.5t-22.5 37.5t-33.5 27t-40 20l-66 26q-28 11 -43.5 25t-15.5 41q0 16 7.5 27t18.5 18t25 10t28 3q30 0 60.5 -10.5t56.5 -24.5l27 68q-27 14 -67 23t-78 9q-31 0 -60 -8.5t-52 -25.5t-37 -41.5t-14 -57.5q0 -55 28 -85t73 -47l59 -23q11 -5 23 -10.5
t21.5 -13.5t16 -18.5t6.5 -24.5q0 -31 -22.5 -47.5t-57.5 -16.5q-31 0 -63.5 11.5t-60.5 26.5l-32 -66q43 -20 84.5 -29t74.5 -9q32 0 61.5 8t52.5 24.5t36.5 42t13.5 59.5zM369 650l-34 34l-122 -96l-122 96l-34 -34l156 -144z" />
    <glyph glyph-name="brokenbar" unicode="&#xa6;" horiz-adv-x="369" 
d="M220 -303v423h-76v-423h76zM220 376v342h-76v-342h76z" />
    <glyph glyph-name="minus" unicode="&#x2212;" horiz-adv-x="560" 
d="M529 219v74l-142 -3h-348l-14 -69l124 7h249z" />
    <glyph glyph-name="twosuperior" unicode="&#xb2;" horiz-adv-x="350" 
d="M319 343h-181l38 28q52 38 81.5 76t29.5 88q0 54 -35 85.5t-91 31.5q-28 0 -49 -6t-33 -11l-18 -78q18 12 41.5 17t42.5 5q63 0 63 -62q0 -23 -9.5 -44t-23.5 -39.5t-29.5 -33.5t-27.5 -26l-66 -61l18 -35h236z" />
    <glyph glyph-name="threesuperior" unicode="&#xb3;" horiz-adv-x="350" 
d="M285 389q0 42 -21.5 62.5t-53.5 27.5q11 5 23 13.5t22 20.5t16.5 27t6.5 33q0 16 -5 30.5t-16.5 25.5t-31 17.5t-47.5 6.5q-12 0 -25.5 -1.5t-27 -4t-24.5 -5t-17 -5.5l-14 -69q9 4 20.5 7t23.5 5.5t22.5 3.5t16.5 1q29 0 42.5 -10.5t13.5 -27.5q0 -24 -15.5 -38.5
t-31.5 -26.5h-64l-14 -59h51q38 0 55.5 -11t17.5 -29t-8 -30t-20.5 -19t-29 -10t-33.5 -3h-60v-35q17 -8 42.5 -10t39.5 -2q30 0 57 7.5t46.5 22.5t31 36.5t11.5 48.5z" />
    <glyph glyph-name="onesuperior" unicode="&#xb9;" horiz-adv-x="350" 
d="M216 278v375l-162 -84v-40l87 20v-271h75z" />
    <glyph glyph-name="onequarter" unicode="&#xbc;" horiz-adv-x="640" 
d="M606 141h-58v234l-79 -17l-174 -228l10 -46h169v-84h74v84h42zM179 278v375l-162 -84v-40l87 20v-271h75zM494 540l-32 25l-338 -463l32 -25zM474 141h-121l121 156v-156z" />
    <glyph glyph-name="onehalf" unicode="&#xbd;" horiz-adv-x="640" 
d="M600 65h-172l38 28q52 38 81.5 76t29.5 88q0 54 -35 85.5t-91 31.5q-28 0 -44 -6t-28 -11l-18 -77q19 13 37.5 17.5t36.5 4.5q63 0 63 -63q0 -23 -9.5 -44t-23.5 -39t-29.5 -33t-27.5 -26l-66 -61l18 -36h226zM183 278v375l-162 -84v-40l87 20v-271h75zM468 540l-32 25
l-338 -463l32 -25z" />
    <glyph glyph-name="threequarters" unicode="&#xbe;" horiz-adv-x="640" 
d="M620 141h-58v234l-79 -17l-174 -228l10 -46h169v-84h74v84h42zM250 389q0 42 -21.5 62.5t-53.5 27.5q11 5 23 13.5t22 20.5t16.5 27t6.5 33q0 16 -5 30.5t-16.5 25.5t-31 17.5t-47.5 6.5q-12 0 -25.5 -1.5t-27 -4t-24.5 -5t-17 -5.5l-14 -69q9 4 20.5 7t23.5 5.5
t22.5 3.5t16.5 1q29 0 42.5 -10.5t13.5 -27.5q0 -24 -15.5 -38.5t-31.5 -26.5h-64l-14 -59h51q38 0 55.5 -11t17.5 -29t-8 -30t-20.5 -19t-29 -10t-33.5 -3h-60v-35q17 -8 42.5 -10t39.5 -2q30 0 56.5 7.5t46.5 22.5t31.5 36.5t11.5 48.5zM518 540l-32 25l-338 -463l32 -25z
M488 141h-121l121 156v-156z" />
    <glyph glyph-name="Eth" unicode="&#xd0;" horiz-adv-x="643" 
d="M90 299v-286q36 -10 85 -18t107 -8q75 0 136.5 24t104.5 68t66.5 104.5t23.5 134.5q0 77 -22.5 138.5t-65 105t-104 67t-138.5 23.5q-62 0 -108 -6t-85 -14v-264h-53l-23 -69h76zM185 368v212h73q61 0 108 -19.5t79 -54t49 -83t17 -106.5q0 -49 -15.5 -95t-44.5 -82
t-71.5 -57.5t-97.5 -21.5q-27 0 -54.5 5t-42.5 9v224h117l23 69h-140z" />
    <glyph glyph-name="multiply" unicode="&#xd7;" horiz-adv-x="560" 
d="M506 411l-66 32l-147 -148l-149 149l-58 -39l92 -83l71 -71l-64 -63l-112 -103l59 -39l161 161l61 -61l87 -99l52 52l-103 98l-53 54l104 105z" />
    <glyph glyph-name="Yacute" unicode="&#xdd;" horiz-adv-x="477" 
d="M491 642h-90l-155 -281l-149 281h-107l196 -369v-273h95v264zM427 806l-46 66l-180 -147l30 -42z" />
    <glyph glyph-name="Thorn" unicode="&#xde;" horiz-adv-x="530" 
d="M185 477h36q34 0 66.5 -4t58 -17.5t41.5 -38.5t16 -66q0 -83 -38 -117t-108 -34h-18v-40q32 -11 61 -11q51 0 89.5 16t64.5 43t39 63.5t13 78.5q0 50 -18 87.5t-49.5 62t-75 37t-95.5 12.5q-23 0 -44 -1t-39 -3v97h-95v-642h95v477z" />
    <glyph glyph-name="eth" unicode="&#xf0;" horiz-adv-x="496" 
d="M272 572q50 -58 75 -150q-16 8 -37.5 13.5t-50.5 5.5q-44 0 -83 -16t-69 -45.5t-47.5 -71t-17.5 -92.5q0 -52 13.5 -94.5t39 -72.5t62.5 -46t85 -16q58 0 99 24t67 62t37.5 85.5t11.5 94.5q0 49 -7 99t-21 96.5t-36 88.5t-52 76l92 56l-25 40l-103 -63q-35 29 -78.5 44.5
t-97.5 15.5h-18l-29 -64h29q36 0 67 -10t57 -28l-133 -80l24 -40zM361 348q6 -45 6 -94q0 -44 -7.5 -82t-23 -66t-39 -43.5t-54.5 -15.5q-19 0 -38.5 10t-35 30.5t-25.5 52t-10 73.5q0 83 38 125.5t94 42.5q36 0 58.5 -10t36.5 -23z" />
    <glyph glyph-name="yacute" unicode="&#xfd;" horiz-adv-x="413" 
d="M413 455h-84l-112 -340l-117 340h-95l168 -470q-38 -101 -124 -101h-65l41 -97q48 1 83 20t59.5 48.5t41 64t28.5 66.5zM377 708l-66 46l-134 -216l42 -30z" />
    <glyph glyph-name="thorn" unicode="&#xfe;" horiz-adv-x="535" 
d="M493 244q0 43 -12 84t-35 73t-58 51t-81 19q-45 0 -79.5 -16.5t-58.5 -39.5v297l-87 -25v-915l87 29v211q10 -8 24 -13.5t27.5 -8.5t25.5 -4.5t20 -1.5q49 0 90.5 18.5t72 52.5t47.5 82t17 107zM401 217q0 -35 -10 -66t-28 -54.5t-43.5 -37t-56.5 -13.5q-45 0 -69.5 29
t-24.5 79v226q11 5 34 12.5t44 7.5q41 0 70.5 -13t48 -37t27 -57.5t8.5 -75.5z" />
    <glyph glyph-name="Lslash" unicode="&#x141;" horiz-adv-x="441" 
d="M90 266v-266h312l40 77h-257v255l16.5 12t36 25.5t36 25l16.5 11.5l-35 59l-70 -49v226h-95v-293l-13 -9t-29 -20t-29 -20l-13 -9l35 -59z" />
    <glyph glyph-name="lslash" unicode="&#x142;" horiz-adv-x="251" 
d="M169 344l82 62l-35 49q-2 -1 -12.5 -9t-22.5 -17.5l-12 -9.5v293l-87 -32v-327l-13 -9.5t-28.5 -21t-28.5 -21.5l-13 -10l35 -49l48 36v-278h87v344z" />
    <glyph glyph-name="fraction" unicode="&#x2215;" horiz-adv-x="200" 
d="M373 692l-55 42l-482 -828l55 -34z" />
    <glyph glyph-name="Zcaron" unicode="&#x17d;" horiz-adv-x="497" 
d="M507 78h-351l329 564h-460v-74h316l-333 -568h469zM419 824l-34 34l-122 -96l-122 96l-34 -34l156 -144z" />
    <glyph glyph-name="zcaron" unicode="&#x17e;" horiz-adv-x="403" 
d="M379 73h-244l226 337v45h-303l-27 -72h217l-228 -347v-36h340zM359 650l-34 34l-122 -96l-122 96l-34 -34l156 -144z" />
    <glyph glyph-name="Euro" unicode="&#x20ac;" 
d="M454 23v86q-27 -22 -61.5 -34t-92.5 -12q-57 0 -97 32t-57 83h201v31h-208q-4 19 -4 44v12t1 11h211v30h-207q13 63 54.5 97t105.5 34q22 0 44.5 -5t43 -13t37.5 -17.5t28 -17.5v86q-21 13 -62 26.5t-89 13.5q-50 0 -92 -15t-74.5 -42t-54 -64.5t-30.5 -82.5h-57v-30h52
q-1 -7 -1 -14v-15q0 -10 0.5 -19.5t1.5 -18.5h-53v-31h58q10 -42 31 -76.5t53 -59.5t73.5 -38.5t92.5 -13.5q48 0 89.5 9.5t62.5 23.5z" />
    </font>
</defs>
</svg>
